<svg xmlns="http://www.w3.org/2000/svg" viewBox="0 0 923.32 1144"><title></title><g style="isolation:isolate"><g id="shadow"><g style="opacity:0.11;mix-blend-mode:multiply"><path d="M1055.5,1025h-739c-23.37,0-42.5,15-42.5,33.22h0c0,12.66,9.17,23.71,22.58,29.32H231.5c-23.37,0-42.5,15-42.5,33.22h0c0,18.28,19.13,33.23,42.5,33.23h22.68c-6.34,5.8-10.18,13.31-10.18,21.5v13.29c0,18.27,19.13,33.22,42.5,33.22h728c23.38,0,42.5-15,42.5-33.22v-13.29c0-18.28-19.12-33.23-42.5-33.23L965,1143c3.77,0,9.89-2.33,14-7,7.2-8.2,7.52-20.67,4-31-2.28-6.69-5.94-12-15-14l87.5.45c23.38,0,42.5-15,42.5-33.23h0C1098,1040,1078.88,1025,1055.5,1025Z" transform="translate(-189 -78)" style="fill:#606060"/></g></g><g id="object"><path d="M725.6,1080.44l24.54,15.73,8.51,12.5s-8.73,4.38-13.63,5.6-43.79-2.94-43.79-2.94l-1.05-22.77Z" transform="translate(-189 -78)" style="fill:#273140"/><path d="M603,1097.61l12.13,13.6s9.87,18.43,4.92,18.15-31.83,1.16-33.64-1.92-16.09-13.82-18-15.92,0-19.39,0-19.39Z" transform="translate(-189 -78)" style="fill:#273140"/><path d="M672.32,735.89,641.84,921.15,603,1097.61l-34.63-2L575,909.39s-25-171.17-25-221.81Z" transform="translate(-189 -78)" style="fill:#2e4661"/><polygon points="559.77 667.02 545.83 1008.96 510.19 1010.61 491.23 836.87 463.64 683.55 537.29 588.69 559.77 667.02" style="fill:#2e4661"/><polygon points="378.97 372.44 378.97 372.44 378.97 372.44 378.97 372.44" style="fill:none"/><path d="M730.08,565c-18.68-90.94,5-134.79-35.86-160.06,0,0-66.63-18.31-109.07,12.16-.59.42-1.17.85-1.75,1.29L568,450.44,556.26,594.28S523.52,783.13,540.9,784.65c19.69,1.73,110.09-40.4,127.26-39.4s69.67,10.4,119.24-6.48C829.9,724.31,748.77,655.92,730.08,565Z" transform="translate(-189 -78)" style="fill:#677b91"/><polygon points="458.22 324.13 445.26 324.61 443.94 337.66 491.56 470.82 502.23 413.12 490.57 329.31 458.22 324.13" style="fill:#fff"/><path d="M689.27,501.68c-.09-5.26-.34-10-.78-13.8-3-26.43-21.86-60.93-21.86-60.93a137.42,137.42,0,0,1-1.55-14.1l-15.68-2.54,1,16.37,6.77,7.08s16.45,62.92,16.76,88.15c0,2.65,0,5.37-.1,8.12l6.72,18.79Z" transform="translate(-189 -78)" style="fill:#2e4661"/><polygon points="497.36 522 479.01 666.99 517.7 672.45 544.46 670.37 510.62 544.58 497.36 522" style="fill:#fff"/><path d="M664.79,407.9,638.14,409a133.16,133.16,0,0,1-1.54-21.2c-7.66-1.53-16.64-4.2-19-11.65a22,22,0,0,1-.59-7.33c.32-10.17-2.54-20.48,1-30.51,1.16-3.33.24-7.15,1.7-10.35,2.55-5.63,8.59-8.79,14.47-10.68,15-4.84,32.23-3.87,45.57,4.53,3.55,2.23,6.88,5.05,8.83,8.76,3,5.73,2.33,12.61,1.57,19q-1,8.89-2.08,17.79c-.8,6.82-2.24,14.65-8.23,18-3.18,1.78-7.21,2-10,4.33C664.93,393.9,666.77,401.79,664.79,407.9Z" transform="translate(-189 -78)" style="fill:#e7caad"/><path d="M703,275.72a26.12,26.12,0,0,1-6.14-1.14c-6.65-2.25-11.61-7.46-18.64-9.5-14.22-4.14-31.43-1.9-44.47,4.93-12.49,6.54-30,10.14-40.94,18.43A35.4,35.4,0,0,0,582.43,302c-8.38,18-5.23,40.85,7.73,55.95a77.44,77.44,0,0,0,9.69,9.21c7.15,5.85,15.74,13.11,24.62,14.4-.87-7.66-11.21-30.74-6.24-37.82,6.61-9.39,21-10.39,31.46-10.29,12.41.11,22.21-4.71,34.54-5.13,6.28-.22,13.46.44,17.91-4,5.15-5.13,15.61-20.91,17.84-27.63,2-5.89-.26-12.75-4.87-16.89C711.13,276.22,707.15,276.11,703,275.72Z" transform="translate(-189 -78)" style="fill:#3a3029"/><path d="M786.52,476,705.8,402.88l-19.41,16.36L753.2,530.83l30.16,2.89s8.69-31.06,10.48-34.36Z" transform="translate(-189 -78)" style="fill:#6d8299"/><path d="M405.26,1018.36c-15.22-4.78-30-3.53-43.9,3.72s-23.39,18.64-28.18,33.85-3.54,30,3.72,43.9,18.64,23.39,33.85,28.18a59.28,59.28,0,0,0,17.87,2.84,55.75,55.75,0,0,0,26-6.56c13.91-7.25,23.39-18.64,28.18-33.85s3.53-30-3.72-43.9S420.45,1023.14,405.26,1018.36Z" transform="translate(-189 -78)" style="fill:#96432b"/><path d="M439.11,1046.54c-7.27-13.91-18.66-23.4-33.85-28.18a60.84,60.84,0,0,0-14.58-2.74A55.35,55.35,0,0,1,413,1038.87c7.25,13.94,8.5,28.7,3.71,43.9s-14.26,26.6-28.18,33.86a55.81,55.81,0,0,1-26,6.56c-1.09,0-2.19,0-3.3-.11a62,62,0,0,0,11.51,4.93,59.28,59.28,0,0,0,17.87,2.84,55.75,55.75,0,0,0,26-6.56c13.91-7.25,23.39-18.64,28.18-33.85S446.36,1060.47,439.11,1046.54Z" transform="translate(-189 -78)" style="fill:#7f3524"/><path d="M725,643.5C701.3,602,661.39,572.25,606.43,555s-105-15.81-148.7,4.39c-38,17.56-65.87,47.35-82.8,88.55a26.88,26.88,0,0,0,16.8,35.87l32.72,10.3a26.89,26.89,0,0,0,32.66-14.8C467,657,480.92,641.9,499.8,633.1c22.85-10.66,50.42-11,81.94-1.11s53.51,26.28,65.64,48.73,13.27,49.34,3.58,80.15c-13.37,42.47-34.54,67.25-62.92,73.66-29.89,6.74-71.87,1.42-124.86-15.84L449,814.24a26.9,26.9,0,0,0-33.7,17.56L376.5,955.15a26.88,26.88,0,0,0,17.57,33.7l33.2,10.45A26.87,26.87,0,0,0,461,981.73l25.14-79.88a1.94,1.94,0,0,1,2.36-1.28c62.38,17.81,114.22,19,154.09,3.62,42.4-16.39,73.09-53.89,91.21-111.46C751.81,735.39,748.88,685.18,725,643.5Z" transform="translate(-189 -78)" style="fill:#96432b"/><path d="M725,643.5C701.3,602,661.39,572.25,606.43,555c-34-10.7-66.16-14.21-96.08-10.53A260.36,260.36,0,0,1,558.88,555c55,17.3,94.88,47.09,118.61,88.55,23.84,41.68,26.78,91.89,8.73,149.23C668.1,850.3,637.42,887.8,595,904.19a159.71,159.71,0,0,1-40.09,9.49c33.58,3.22,62.91.07,87.63-9.49,42.4-16.39,73.09-53.89,91.21-111.46C751.81,735.39,748.88,685.18,725,643.5Z" transform="translate(-189 -78)" style="fill:#7f3524"/><polygon points="410.3 331 372.05 342.79 280.53 498.78 286.77 528.93 405.32 588.21 421.96 555.97 347.09 498.78 392.84 436.38 410.52 336.55 410.3 331" style="fill:#6d8299"/><polygon points="515.22 326.21 495.8 305.35 477.08 310.55 471.88 329.27 488.52 332.39 504.15 335.54 515.22 326.21" style="fill:#d6bba0"/><polygon points="420.32 559.15 439 563 436 574 452.18 592.93 430 601 408.28 582.49 420.32 559.15" style="fill:#e7caad"/><path d="M795,239.37a39.83,39.83,0,0,0,49.21,61A57.79,57.79,0,0,0,948.67,313,70.07,70.07,0,0,0,1073,268.36a70.72,70.72,0,0,0-1.62-14.73,57.78,57.78,0,0,0-29.13-111.73c0-.43,0-.86,0-1.29a39.83,39.83,0,0,0-68.76-27.22,70.07,70.07,0,0,0-130,23.3,58.59,58.59,0,0,0-14.79-1.86A57.77,57.77,0,0,0,795,239.37Zm63.21,3-.23.25-.06-.08Z" transform="translate(-189 -78)" style="fill:#c5cccc"/><path d="M835.76,356.66a24.42,24.42,0,0,1-35.56,25.43,19.15,19.15,0,0,1-37.31-2.25,18.7,18.7,0,0,1-.18-4.53,17.53,17.53,0,0,1-4.49-34.76,17.17,17.17,0,0,1,5.77,0,24.42,24.42,0,0,1,46.62-4.45A24.43,24.43,0,0,1,835.76,356.66Z" transform="translate(-189 -78)" style="fill:#c5cccc"/></g></g></svg>