<svg xmlns="http://www.w3.org/2000/svg" xmlns:xlink="http://www.w3.org/1999/xlink" viewBox="0 0 467.35 236.22"><defs><linearGradient id="Degradado_sin_nombre_42" x1="116.04" y1="231" x2="222.28" y2="231" gradientUnits="userSpaceOnUse"><stop offset="0" stop-color="#464fc6" stop-opacity="0.02"/><stop offset="1" stop-color="#3f4ad0" stop-opacity="0.64"/></linearGradient><linearGradient id="Degradado_sin_nombre_42-2" x1="226.58" y1="231" x2="332.83" y2="231" xlink:href="#Degradado_sin_nombre_42"/><linearGradient id="Degradado_sin_nombre_9" x1="173.43" y1="286.32" x2="179.63" y2="279.66" gradientUnits="userSpaceOnUse"><stop offset="0" stop-color="#f499ab" stop-opacity="0"/><stop offset="1" stop-color="#fc94b4"/></linearGradient><linearGradient id="Degradado_sin_nombre_9-2" x1="290.47" y1="286.52" x2="302.77" y2="277.02" xlink:href="#Degradado_sin_nombre_9"/></defs><title>italy</title><g id="Objects"><polygon points="214.92 72.67 213.76 72.67 213.76 72.67 204.09 31.65 194.42 72.67 193.26 72.67 191.01 61.15 191.01 72.67 191.01 87.15 191.01 195.99 217.17 195.99 217.17 87.15 217.17 72.67 217.17 61.15 214.92 72.67" style="fill:#bec6ff"/><polygon points="366.27 76.58 366.27 69.61 320.98 69.61 320.98 76.58 318.26 76.58 318.26 194.86 368.99 194.86 368.99 76.58 366.27 76.58" style="fill:#bec6ff"/><polygon points="298.31 83.2 266.29 83.2 253.66 92.25 253.66 203.18 272.67 203.18 310.69 203.18 310.69 92.25 298.31 83.2" style="fill:#bec6ff"/><polygon points="129.98 92.37 97.95 92.37 85.33 102.05 85.33 199.66 104.33 199.66 142.35 199.66 142.35 102.05 129.98 92.37" style="fill:#bec6ff"/><path d="M120.52,360.37H47.77a21,21,0,0,0-21,20.95h93.7Z" transform="translate(-16.32 -186.45)" style="fill:#dbdeff"/><path d="M94.26,351.92v-14.5h1.89V336H94.26V323.48H92.49l-1-108.83-5-4v-5.57a1.67,1.67,0,0,0,0-3.33v-1.93a1.67,1.67,0,0,0,0-3.32v-6.66h2.26v-1H86.55v-2.43h-.73v2.43H83.56v1h2.26v6.66a1.67,1.67,0,0,0,0,3.32v1.93a1.67,1.67,0,0,0,0,3.33v5.57l-5,4-1,108.83H78.11V336H76.22v1.4h1.89v14.5l-3.8,3.92v6.42H98.06V355.6Z" transform="translate(-16.32 -186.45)" style="fill:#dbdeff"/><path d="M212.81,338.34v-9.82h-2.52V323c-.66-5.23-5.56-7.13-5.56-7.13v-5.8a2,2,0,0,0-1.78-1.94v-3.34h-.38v3.35a1.94,1.94,0,0,0-1.74,1.93v5.8h.1c-4.47,1.42-5.71,6.44-5.71,6.44v-7.73l-2.76-2s.8-19.85-15.92-27.38V283h-1.82v-7.45H173.4v-3.15h-.76v1.47h-.85v-1.52a4.36,4.36,0,0,1-1.34-3.21v-1.64h-.77v-.88a.94.94,0,0,0,0-1.85v-3.07h1v-.38h-1v-.76h-.38v.76h-1.05v.38h1.05v3.07a.94.94,0,0,0,0,1.85v.88h-.78V268s.27,3.14-1.35,4.33v1.52h-.86v-1.47h-.75v3.15h-1.3V283h-2v2.26c-16.55,7.59-15.76,27.31-15.76,27.31l-2.85,2v7.73s-1.24-5-5.71-6.44h.1v-5.8a2,2,0,0,0-1.74-1.93v-3.35h-.38v3.34a2,2,0,0,0-1.78,1.94v5.8s-4.9,1.9-5.56,7.13v5.53H126.1v9.82h-8.27v43H221.08v-43Z" transform="translate(-16.32 -186.45)" style="fill:#dbdeff"/><path d="M229.08,345.1V348h-1.73v3.46h1.73v29.83H458.7V351.49h1.73V348H458.7V345.1h1.73v-1.73H458.7v-2.49h-10v-2.77h-2.19V317.8h-1.62V304.23l1.67-2.51h-1.67v-5.2l1.67-1.26h-1.67v-2.38h-1v-2.69l3.85-4.93h-3.77l.92-2.23h-4.23v-1.38H437v-1.12h-4.17v-1.27h-.05l0-2.43a1.33,1.33,0,0,1,0-.4.94.94,0,0,1,.2-.35,2.24,2.24,0,0,1,1.7-.6c.43,0,.94.15,1,.55a2.16,2.16,0,0,1-.06.71c0,.24.1.54.34.54,0-.49,0-1-.05-1.47a2.24,2.24,0,0,0-.29-1.23,5.2,5.2,0,0,1-.35-.47c-.22-.44,0-1-.29-1.42-.09-.11-.23-.22-.2-.37a.49.49,0,0,1,.18-.23,1.87,1.87,0,0,0,.42-1.3.87.87,0,0,0-.06-.48.61.61,0,0,0-.81-.18,1.71,1.71,0,0,0-.63.65l-.75,1.09c-.3.44-.6.88-.92,1.31s-.73.84-1.21.68c0-.06,0-.19,0-.25V272l-.11-.07h-1.12c0-.25-.06-.62-.08-.87a.6.6,0,0,1,.1-.46c.15-.14.41-.12.53-.28a.41.41,0,0,0,.07-.22c0-.16,0-.36-.09-.45s-.38,0-.49-.14a.38.38,0,0,1-.05-.21l0-.62a.22.22,0,0,0,0-.14c-.07-.13-.29-.07-.35.07a.64.64,0,0,0,0,.43.52.52,0,0,1,0,.44c-.13.18-.41.13-.61.24a.41.41,0,0,0,0,.65c.11.08.25.1.34.19a.57.57,0,0,1,.1.39v.62a.21.21,0,0,1,0,.13c-.07.11-.27,0-.37.11a.26.26,0,0,0-.07.21c0,.21,0,.42,0,.64-.35,0-.72,0-1.07,0,0,.1,0,.17,0,.27v1l-.11,0h-.62c0,1,0,1.95,0,2.93a.32.32,0,0,0,.1.28c.09.06.22,0,.33,0,.26,0,.33.36.35.62,0,.52,0,1,.07,1.54H425.5l-.12-1.15c0-.05,0-.12,0-.16a.26.26,0,0,1,.12-.05c.23,0,.48-.17.71-.21V275.8h-.77v-.65h-.58V273h-.55v-4.47h-.82a2.2,2.2,0,0,1,.56-1.8l.67-1a3.56,3.56,0,0,0,.53-1,4.83,4.83,0,0,0,0-1.42,1.69,1.69,0,0,1,.37-1.33c.15-.14.37-.31.29-.5a.29.29,0,0,0-.33-.15.86.86,0,0,0-.33.2,1.93,1.93,0,0,0-.8,1.06c0,.22,0,.45,0,.67a1,1,0,0,1-1.4.69c-.08,0-.15-.1-.24-.09s-.2.24-.23.41-.21.36-.33.24a.32.32,0,0,1-.06-.17,2.5,2.5,0,0,0-1.23-1.82,5,5,0,0,0-1.57-.45c-.54-.09-1.08-.07-1.63-.16.09.45.54.74,1,.93a2.45,2.45,0,0,1,1.14.76,4,4,0,0,1,.31,1.18,4.41,4.41,0,0,0,.51,1.1l.66,1.12a3.3,3.3,0,0,0,.26.39c.22.28.54.51.57.86l-.15.15h-1.32V272l-1.3,1.12c-.31.28-.66.7-.45,1.07.09.15.26.24.35.4a1,1,0,0,1,.08.48c0,.45,0,.9,0,1.35a.33.33,0,0,1-.05.2c0,.08-.17.09-.26.1a1.09,1.09,0,0,0-.83.43,1.2,1.2,0,0,0,.19,1.18,2.42,2.42,0,0,1,.44.95h-1.34c0-.72,0-1.43,0-2.15a1.56,1.56,0,0,1,.19-1,2.44,2.44,0,0,0,.32-.4,3.35,3.35,0,0,0,.11-.55c.05-.18.18-.32.23-.49.15-.48-.27-.94-.7-1.2s-.94-.46-1.16-.91a3.25,3.25,0,0,1-.12-1.29,2.5,2.5,0,0,0-.76-1.66c-.53-.5-1.06.93-1.13,1.29a4.52,4.52,0,0,0-.05.82.77.77,0,0,0,.16.58,1.89,1.89,0,0,0,.46.2c.14.08.26.29.14.41a.46.46,0,0,0-.45.33,5.59,5.59,0,0,0-.11.59,5,5,0,0,1-.48.92,4.47,4.47,0,0,0-.26,2.3c0,.22.12.52.34.48,0-.43.08-.85.13-1.28a1,1,0,0,1,.14-.52.35.35,0,0,1,.47-.1c.19.15.08.47.2.68a1.39,1.39,0,0,0,.25.23,1.54,1.54,0,0,1,.33,1.08c0,.54,0,1.07.05,1.6h-1.06v1.27h-3.12v1.12H409.2V283h-3.69v2.23h-3.08l-2.16,7.62H287.74l-2.16-7.62h-3.07V283h-3.7v-1.38h-2.44v-1.12h-3.11v-1.27h-1.07l.05-1.6a1.54,1.54,0,0,1,.33-1.08,1.39,1.39,0,0,0,.25-.23c.12-.21,0-.53.2-.68a.35.35,0,0,1,.47.1,1,1,0,0,1,.14.52l.13,1.28c.22,0,.33-.26.34-.48a4.47,4.47,0,0,0-.26-2.3,5,5,0,0,1-.48-.92,5.59,5.59,0,0,0-.11-.59.46.46,0,0,0-.45-.33c-.12-.12,0-.33.14-.41a1.89,1.89,0,0,0,.46-.2.77.77,0,0,0,.16-.58,4.52,4.52,0,0,0-.05-.82c-.07-.36-.6-1.79-1.13-1.29a2.5,2.5,0,0,0-.76,1.66,3.25,3.25,0,0,1-.12,1.29c-.22.45-.73.65-1.16.91s-.85.72-.7,1.2c.05.17.18.31.23.49a3.35,3.35,0,0,0,.11.55,2.44,2.44,0,0,0,.32.4,1.56,1.56,0,0,1,.19,1c0,.72,0,1.43,0,2.15h-1.34a2.42,2.42,0,0,1,.44-.95,1.2,1.2,0,0,0,.19-1.18,1.09,1.09,0,0,0-.83-.43c-.09,0-.21,0-.26-.1a.33.33,0,0,1-.05-.2c0-.45,0-.9,0-1.35a1,1,0,0,1,.08-.48c.09-.16.27-.25.35-.4.21-.37-.13-.79-.45-1.07l-1.3-1.12v-3.53H266l-.15-.15c0-.35.35-.58.57-.86a3.3,3.3,0,0,0,.26-.39l.66-1.12a4.41,4.41,0,0,0,.51-1.1,4,4,0,0,1,.31-1.18,2.45,2.45,0,0,1,1.14-.76c.43-.19.88-.48,1-.93-.55.09-1.09.07-1.63.16a5,5,0,0,0-1.57.45,2.5,2.5,0,0,0-1.23,1.82c0,.06,0,.13-.06.17s-.3-.07-.33-.24-.06-.39-.23-.41-.16,0-.24.09a1,1,0,0,1-1.4-.69c0-.22,0-.45,0-.67a1.93,1.93,0,0,0-.8-1.06.86.86,0,0,0-.33-.2.29.29,0,0,0-.33.15c-.08.19.14.36.29.5a1.69,1.69,0,0,1,.37,1.33,4.83,4.83,0,0,0,0,1.42,3.56,3.56,0,0,0,.53,1l.68,1a2.23,2.23,0,0,1,.55,1.8h-.82V273h-.55v2.12h-.58v.65h-.77v1.89c.23,0,.49.17.71.21a.22.22,0,0,1,.12.05s0,.11,0,.16l-.12,1.15h-2.25c0-.51.05-1,.07-1.54,0-.26.09-.59.35-.62s.24,0,.33,0a.32.32,0,0,0,.1-.28c0-1,0-2,.05-2.93h-.62l-.11,0v-1c0-.1,0-.17,0-.27-.35,0-.72,0-1.07,0,0-.22,0-.43,0-.64a.26.26,0,0,0-.07-.21c-.1-.09-.3,0-.37-.11a.21.21,0,0,1,0-.13v-.62a.57.57,0,0,1,.1-.39c.09-.09.23-.11.34-.19a.41.41,0,0,0,0-.65c-.19-.11-.48-.06-.61-.24a.52.52,0,0,1,0-.44.64.64,0,0,0,0-.43c-.06-.14-.28-.2-.35-.07a.22.22,0,0,0,0,.14l0,.62a.38.38,0,0,1,0,.21c-.11.13-.34.05-.48.14s-.13.29-.1.45a.41.41,0,0,0,.07.22c.12.16.38.14.53.28a.6.6,0,0,1,.1.46c0,.25-.06.62-.08.87h-1.12L257,272v1.62c0,.06,0,.19,0,.25-.48.16-.92-.28-1.21-.68s-.62-.87-.92-1.31l-.75-1.09a1.71,1.71,0,0,0-.63-.65.61.61,0,0,0-.81.18.87.87,0,0,0-.06.48,1.87,1.87,0,0,0,.42,1.3.49.49,0,0,1,.18.23c0,.15-.11.26-.2.37-.3.39-.07,1-.29,1.42a5.2,5.2,0,0,1-.35.47,2.24,2.24,0,0,0-.29,1.23c0,.49,0,1-.05,1.47.24,0,.36-.3.34-.54a2.16,2.16,0,0,1-.06-.71c.1-.4.61-.54,1-.55a2.24,2.24,0,0,1,1.7.6.94.94,0,0,1,.2.35,1.33,1.33,0,0,1,0,.4l0,2.43h-.05v1.27H251v1.12h-3.54V283H243.2l.92,2.23h-3.77l3.85,4.93v2.69h-1v2.38h-1.9l1.84,1.39h.06v5.07h-1.9l1.84,2.77h.06V317.8h-1.85v20.31h-2.19v2.77h-10v2.49h-1.73v1.73Zm28-65.84h-1.46l0-1.53c0-.15,0-.34.19-.37s.27.25.33.44c.15.41.64.64.77,1.05a1.74,1.74,0,0,0,.11.39Zm2.37-1.71c-.08.61.53,1.11.57,1.71h-2.63a9.73,9.73,0,0,1,.15-2,.59.59,0,0,1,.24-.44c.08-.05.17-.05.24-.09.25-.13.27-.56.55-.59s.36.43.59.64.23.14.3.25S259.46,277.37,259.44,277.55Zm6.84.94v.77h-3a5.26,5.26,0,0,1,.15-1.24c.49.17,1-.3,1.48-.31a3.07,3.07,0,0,1,1.2.47.4.4,0,0,1,.18.1A.38.38,0,0,1,266.28,278.49Zm1.69.77h-.68s0,0,.06-.05a.9.9,0,0,0,0-.54.83.83,0,0,1,.06-.54.29.29,0,0,1,.46-.07.46.46,0,0,1,.06.26Zm3.81,0,0,0h-.92l.06-1.73c0-.23,0-.51.25-.6a.43.43,0,0,1,.53.24,1.27,1.27,0,0,1,.06.64l-.06.94A.87.87,0,0,0,271.78,279.23Zm145.34,0h-.92l0,0a.79.79,0,0,0,0-.48l-.06-.94a1.27,1.27,0,0,1,.06-.64.43.43,0,0,1,.53-.24c.21.09.25.37.25.6Zm3.6,0H420v-.94a.46.46,0,0,1,.06-.26.29.29,0,0,1,.46.07.83.83,0,0,1,.06.54.9.9,0,0,0,0,.54S420.7,279.24,420.72,279.26Zm4.06,0h-3v-.77a.31.31,0,0,1,0-.21.32.32,0,0,1,.17-.1,3.07,3.07,0,0,1,1.2-.47c.51,0,1,.48,1.48.31A5.26,5.26,0,0,1,424.78,279.26Zm5.85,0H428c0-.6.65-1.1.57-1.71,0-.18-.1-.38,0-.53s.21-.16.3-.25.28-.68.59-.64.3.46.55.59c.07,0,.17,0,.24.09a.56.56,0,0,1,.24.44A9.73,9.73,0,0,1,430.63,279.26Zm1.77,0h-1.46l0,0a1.74,1.74,0,0,0,.11-.39c.14-.41.63-.64.77-1.05.06-.19.13-.48.33-.44s.19.22.19.37ZM399,313.59v-1.67h3.79v1.67h.66V336h-.66v1.68H399V336h-.66V313.59Zm-7.51,0v-1.67h3.78v1.67H396V336h-.66v1.68h-3.78V336h-.66V313.59Zm-7.52,0v-1.67h3.78v1.67h.66V336h-.66v1.68H384V336h-.66V313.59Zm-7.52,0v-1.67h3.79v1.67h.66V336h-.66v1.68h-3.79V336h-.66V313.59Zm-7.51,0v-1.67h3.78v1.67h.66V336h-.66v1.68H369V336h-.66V313.59Zm-7.52,0v-1.67h3.79v1.67h.65V336h-.65v1.68h-3.79V336h-.66V313.59Zm-7.52,0v-1.67h3.79v1.67h.66V336h-.66v1.68h-3.79V336h-.66V313.59Zm-7.51,0v-1.67h3.78v1.67h.66V336h-.66v1.68h-3.78V336h-.66V313.59Zm-7.52,0v-1.67h3.79v1.67h.65V336h-.65v1.68h-3.79V336h-.66V313.59Zm-7.52,0v-1.67h3.79v1.67h.66V336h-.66v1.68h-3.79V336h-.65V313.59Zm-7.51,0v-1.67h3.78v1.67h.66V336h-.66v1.68h-3.78V336h-.66V313.59Zm-7.52,0v-1.67h3.79v1.67h.65V336h-.65v1.68h-3.79V336h-.66V313.59Zm-7.52,0v-1.67h3.79v1.67h.66V336h-.66v1.68h-3.79V336h-.65V313.59Zm-7.51,0v-1.67h3.78v1.67h.66V336h-.66v1.68h-3.78V336h-.66V313.59Zm-7.52,0v-1.67h3.79v1.67h.66V336h-.66v1.68h-3.79V336h-.66V313.59Zm-7.52,0v-1.67h3.79v1.67h.66V336h-.66v1.68h-3.79V336h-.65V313.59Z" transform="translate(-16.32 -186.45)" style="fill:#dbdeff"/><path d="M452.12,360.37h0v20.95h20.95A21,21,0,0,0,452.12,360.37Z" transform="translate(-16.32 -186.45)" style="fill:#dbdeff"/><path d="M164.52,308.72v7.56H142.84l-8.55-8.55s-7,1-10.14,1.59c0,0-2-13.92-4.58-15.52V277.69l-2.18-2.78H114l-7-18.5s-2-5-5.37-6.36v-1.59l-3.18-3.18s-44.75,10.14-50.12,44.94l1.39.89v4.49a9.21,9.21,0,0,0-.66,2.51s-.73.66-.73,3.43l.59,1.19v9.77a15.19,15.19,0,0,0-.59,13.08v9s-5.09,5.54-.6,10.43v15.58s-1.71,2.11,0,3.3v17.45h198.3V331.59S239.11,306.53,164.52,308.72ZM76.74,273.94l4-1.32V279l-4,1.06ZM59.88,286.18l2.51-2.2v6.38l-2.51,1.94ZM57.65,342.1v0h0c.08-2.84,1-5.32,2.41-5.32,1.24,0,1.66,2.25,1.66,5.32h0v9.77l-4.08,1.37V342.1Zm-6-45.32,1.25-1.4v6.12l-1.25,1.14Zm-.59,25.67h0c0-2.16.43-4.05,1.09-4.05s.75,1.72.75,4.05h0v7.3l-1.84.95v-8.24ZM52,354.5l-1.84.95V347.8a2.81,2.81,0,0,1,0-.29c0-.1,0-.2,0-.3h0c0-2.16.43-4.05,1.08-4.05s.76,1.72.76,4.05h0Zm3.47,24.69H52.78V370h0c0-2.39.44-4.27,1.34-4.27.71,0,1.29,1.88,1.34,4.27h0Zm.58-26-2.62,1.14v-9.93h0c0-2.59.61-4.86,1.54-4.86s1.08,2.06,1.08,4.86h0Zm5.92,26H57v-9.5c0-.12,0-.24,0-.37s0-.24,0-.36v0h0c.1-2.65.2-4.75,2.49-4.75,1.32,0,2.4,2.1,2.49,4.75h0Zm.77-54.94-4.07,1.85V315.48c0-.13,0-.26,0-.39s0-.26,0-.39v0h0c.08-2.84.95-5.32,2.4-5.32,1.25,0,1.66,2.26,1.66,5.32h0Zm1.48,16c0-.14,0-.28,0-.42v0h0c.12-3.06,1.76-5.74,3.41-5.74,1.88,0,2.7,2.44,2.7,5.74h0V350.4l-6.13,1.22V340.67C64.23,340.53,64.22,340.39,64.22,340.25Zm6.4,38.94H64.4V369c0-.13,0-.26,0-.39s0-.26,0-.39v0h0c.12-2.86.67-5.12,3.1-5.12,1.65,0,3,2.26,3.11,5.12h0Zm.75-59.12-6.13,2.82V312.35c0-.14,0-.28,0-.42s0-.28,0-.42v0h0c.11-3.06,1.75-5.74,3.4-5.74,1.88,0,2.71,2.43,2.71,5.74h0Zm9.46,59.12h-7.6V369c0-.13,0-.26,0-.39s0-.26,0-.39v0h0C73.37,365.3,75,363,77,363s3.65,2.26,3.8,5.12h0Zm.09-30.64-7.31,1.36V338.63c0-.15,0-.29,0-.43s0-.29,0-.44v0h0c.14-3.15,2.1-5.91,4.07-5.91,2.24,0,3.23,2.51,3.23,5.91h0Zm1-31.38-7.31,2.17V308.5c0-.15,0-.29,0-.44s0-.28,0-.43v0h0c.15-3.15,1.77-6,4.07-6.35s3.23,2.51,3.23,5.92h0Zm12.28,62H85.05V367.67c0-.15,0-.29,0-.44s0-.3,0-.44v0h0c.18-3.22,2.16-5.77,4.58-5.77s4.39,2.55,4.57,5.77h0Zm0-32.27-9,.83v-12c0-.16,0-.31,0-.46s0-.31,0-.46v0h0c.17-3.35,2.57-6.28,5-6.28,2.75,0,4,2.66,4,6.28h0ZM86.31,316l-.08-10.9c0-.15,0-.3,0-.46s0-.3,0-.46v0h0c0-4.05,3.15-7.38,5.57-7.4,2.75,0,3.37,3,3.4,6.58h0l.07,10.12Zm24.46,63.21H99.55V367.67c0-.15,0-.29,0-.44s0-.3,0-.44v0h0a5.6,5.6,0,1,1,11.19,0h0Zm0-33.45-11.22.35v-12c0-.15,0-.3,0-.45s0-.31,0-.46v0h0c.21-3.35,2.63-6,5.6-6s5.38,2.65,5.59,6h0Zm.44-35-10.65,2.06V300.57c0-.15,0-.3,0-.46s0-.3,0-.45v0h0c.2-3.35,2.37-6.94,6.34-6.94,2.81,0,4.29,2.42,4.29,6.27h0Zm18,68.44H116.89V367c0-.16,0-.31,0-.47s0-.31,0-.47v0h0a6.17,6.17,0,0,1,12.34,0h0Zm0-34.52-12.36.22V332.67c0-.37,0-.52,0-.68s0-.31,0-.47v0h0a6.17,6.17,0,0,1,12.34,0h0Zm20.43,34.52H136.14V366.64c0-.16,0-.32,0-.48s0-.32,0-.48v0h0a6.77,6.77,0,0,1,13.5,0h0ZM151.36,344h-6.91l-3.12-7.67v-1c0-.11,0-.21,0-.33s0-.22,0-.33v0h0a5.06,5.06,0,0,1,10,0h0Zm18.41,35.24h-5.15l-7-11.93a1.09,1.09,0,0,1,0-.18v0h0a6.07,6.07,0,0,1,12.11,0h0Zm.71-33.77H156.94V336c0-.16,0-.32,0-.48s0-.33,0-.48v0h0a6.77,6.77,0,0,1,13.5,0h0Zm37.66-2.64v0h0c.14-3,1.27-5.3,3.6-5.3s3.46,2.34,3.6,5.3h0v11.43h-7.21v-10.6c0-.13,0-.27,0-.41S208.14,342.91,208.14,342.78Zm-21.28,36.41H175.31V368.48c0-.13,0-.27,0-.41s0-.27,0-.41v0h0a5.78,5.78,0,0,1,11.52,0h0ZM194,347.92h-8.42v-7.81c0-.1,0-.2,0-.3s0-.2,0-.3h0a4.21,4.21,0,0,1,8.4,0h0Zm8.13,31.27H196.8V363.52a5.37,5.37,0,0,1,5.34,5h0Zm3.09-25H198v-10.6c0-.13,0-.27,0-.41s0-.27,0-.4v0h0c.14-3,1.27-5.3,3.6-5.3s3.46,2.34,3.6,5.3h0Zm10.28,25H208V370c0-.12,0-.24,0-.36s0-.23,0-.35v0h0c.14-2.58,1.77-4.62,3.77-4.62s3.63,2,3.78,4.62h0Zm2.1-35.12c0-.12,0-.24,0-.37v0h0c.11-2.72,1-4.87,2.81-4.87s2.71,2.15,2.82,4.87h0v10.51h-5.64v-9.74C217.63,344.32,217.63,344.2,217.63,344.07Zm6.64,35.12h-5.51v-8.62c0-.11,0-.22,0-.33s0-.22,0-.33h0c.11-2.41.82-4.31,2.75-4.31s2.64,1.9,2.75,4.31h0Zm5.28,0h-3.4v-9.28h0c.07-2.41.51-4.31,1.7-4.31s1.63,1.9,1.69,4.31h0Zm1.06-25h-5.18v-8.95c0-.11,0-.22,0-.34s0-.23,0-.34v0h0c.1-2.5.91-4.47,2.58-4.47s2.49,2,2.59,4.47h0Zm4.95,25h-3.4v-8.62c0-.11,0-.22,0-.33s0-.22,0-.33h0c.07-2.41.51-4.31,1.7-4.31s1.63,1.9,1.69,4.31h0Zm0-24.2h-2.73v-8.53h0c.06-2.21.41-4,1.36-4s1.31,1.75,1.36,4h0Zm4.44,24.2h-2.49v-7.78c0-.1,0-.2,0-.3s0-.2,0-.3h0c0-2.18.37-3.89,1.24-3.89s1.2,1.71,1.25,3.89h0Zm0-23.6h-2.61v-8.52h0c.05-2.21.39-4,1.31-4s1.25,1.75,1.3,4h0Zm2.87,23.6h-2.11v-7.81h0c0-2,.31-3.62,1.05-3.62s1,1.59,1.05,3.62h0Zm.26-23.6H241v-6.45c0-.08,0-.16,0-.24s0-.17,0-.25h0c0-1.81.31-3.23,1.06-3.23s1,1.42,1.06,3.23h0Zm2.05,23.6h-1.6v-6.5c0-.08,0-.16,0-.25s0-.16,0-.24v0h0c0-1.81.24-3.25.8-3.25s.77,1.44.8,3.25h0Zm0-23.27h-1.06v-6h0c0-1.55.16-2.78.53-2.78s.51,1.23.53,2.78h0Z" transform="translate(-16.32 -186.45)" style="fill:#bec6ff"/><path d="M342.17,318.57v-1.44H259.49v1.44h2.08v12.69h-1.3v1.86h1.3v24.19h-1.24v2h1.24v17.73h-1.3v4.25h9.84V367a5.4,5.4,0,0,1,10.8,0v14.32h9.57V358.73a10.32,10.32,0,0,1,20.64,0v22.59h9.61V367a5.4,5.4,0,1,1,10.79,0v14.32h9.81v-4.25H340V359.34h1.36v-2H340V333.12h1.36v-1.86H340V318.57Z" transform="translate(-16.32 -186.45)" style="fill:#bec6ff"/><path d="M406.68,313.5l-50.57,21H358v1.34h3.27v1.34h1v1.34h1v6.27h.53v.42h.36v31.75h-.67v1h-.31v.89h-1.92v2.46h90.12v-2.46h-1.69V378h-.31v-1h-.67V345.18h.36v-.42h.53v-2h.09v-4.23h1v-1.34h1v-1.34h3.26v-1.34h1.9Zm-38.21,65.36V378h-.31v-1h-.67V345.18h.37v-.42h.53v-2h6.47v2h.53v.42h.36v31.75h-.67v1h-.31v.89Zm11.6,0V378h-.31v-1h-.67V345.18h.37v-.42H380v-2h6.47v2H387v.42h.36v31.75h-.67v1h-.31v.89Zm11.6,0V378h-.3v-1h-.67V345.18h.36v-.42h.53v-2h6.47v2h.53v.42H399v31.75h-.67v1H398v.89Zm11.6,0V378H403v-1h-.67V345.18h.36v-.42h.53v-2h6.47v2h.53v.42h.36v31.75h-.67v1h-.3v.89Zm11.6,0V378h-.3v-1h-.67V345.18h.36v-.42h.53v-2h6.47v2h.53v.42h.36v31.75h-.67v1h-.3v.89Zm11.61,0V378h-.31v-1h-.67V345.18h.36v-.42h.53v-2h6.47v2h.53v.42h.36v31.75h-.66v1h-.31v.89ZM445,344.76v.42h.37v31.75h-.67v1h-.31v.89h-6.3V378h-.31v-1h-.67V345.18h.36v-.42H438v-2h6.47v2Z" transform="translate(-16.32 -186.45)" style="fill:#bec6ff"/><path d="M21.62,391.9H478.38a5.29,5.29,0,0,0,5.3-5.29h0a5.29,5.29,0,0,0-5.3-5.29H21.62a5.29,5.29,0,0,0-5.3,5.29h0A5.29,5.29,0,0,0,21.62,391.9Z" transform="translate(-16.32 -186.45)" style="fill:#bec6ff"/></g><g id="Designed_by_Freepik" data-name="Designed by Freepik"><ellipse cx="169.16" cy="231" rx="53.12" ry="5.22" style="opacity:0.5;fill:url(#Degradado_sin_nombre_42)"/><ellipse cx="279.7" cy="231" rx="53.12" ry="5.22" style="opacity:0.5;fill:url(#Degradado_sin_nombre_42-2)"/><polygon points="197.66 224.4 199.35 228.86 196.81 229.83 194.1 224.34 196.79 223.72 197.66 224.4" style="fill:#fff"/><path d="M212.71,415.41l13.09-4.1a1.25,1.25,0,0,1,1.33.65c.41.83-13.18,5.88-13.18,5.88Z" transform="translate(-16.32 -186.45)" style="fill:#524e64"/><polygon points="197.66 224.4 199.35 228.86 196.81 229.83 194.1 224.34 196.79 223.72 197.66 224.4" style="fill:#ffbcc6"/><path d="M212.71,415.41l13.09-4.1a1.25,1.25,0,0,1,1.33.65c.41.83-13.18,5.88-13.18,5.88Z" transform="translate(-16.32 -186.45)" style="fill:#524e64"/><polygon points="209.47 90.7 204.98 91.78 202.18 81.03 206.67 79.95 209.47 90.7" style="fill:#524e64"/><path d="M228.93,265l.37,1.49-3.56.9.29,1.11-4.82,1.21s0,0,0,.08l-.06,0s.21.84.44,1.69.42,1.71.42,1.71l.06,0s0,.07,0,.07l4.82-1.21.28,1.11,3.56-.9.37,1.48,4.38-1.1-.67-2.67-.86-3.4-.68-2.67Z" transform="translate(-16.32 -186.45)" style="fill:#524e64"/><path d="M217.37,271.38a1.85,1.85,0,0,0-.63,1.82,5.36,5.36,0,0,0,.34.62,4.81,4.81,0,0,1,.32,1.14,3.16,3.16,0,0,0,.74,1.51,1.73,1.73,0,0,0,1.54.54,2.23,2.23,0,0,0,1.42-1.33,7.76,7.76,0,0,0,.74-3.29,3.62,3.62,0,0,0-.29-1.79C220.65,268.85,218.31,270.42,217.37,271.38Z" transform="translate(-16.32 -186.45)" style="fill:#f9a3b3"/><polygon points="131.14 211.78 128.46 215.72 126.2 214.2 129.15 208.82 131.2 210.67 131.14 211.78" style="fill:#fff"/><polygon points="131.14 211.78 128.46 215.72 126.2 214.2 129.15 208.82 131.2 210.67 131.14 211.78" style="fill:#ffbcc6"/><path d="M143.2,399.33l1.7,2.76.62,11.77a1.25,1.25,0,0,1-.9,1.18c-.89.24-3.2-14.07-3.2-14.07Z" transform="translate(-16.32 -186.45)" style="fill:#524e64"/><polygon points="174.4 149.59 161.44 185.36 131.44 212.72 127.6 210.33 151.43 181.75 156.88 148.94 174.4 149.59" style="fill:#35324c"/><polygon points="174.72 149.43 198.6 224.69 194.44 226.47 156.19 148.72 174.72 149.43" style="fill:#524e64"/><polygon points="189.63 105.11 177.63 104.93 180.7 112.48 194.75 110.9 205.48 86.16 201.51 87.91 189.63 105.11" style="fill:#f9a3b3"/><path d="M194,291.39h0l-13.49-.22a4.82,4.82,0,1,0,.18,9.6L197,298.93Z" transform="translate(-16.32 -186.45)" style="fill:#7b81eb"/><path d="M179.34,295.64c-2.09-.54-4.21-1-6.34-1.31,2.44-7.16,0-15-.1-22.55a3.35,3.35,0,0,1,.25-1.6,2.73,2.73,0,0,1,1.92-1.28c3.31-.72,6.58,2,7.67,5.25,1.25,3.71-1.62,5.37-2.31,9.08C180.26,284.12,179.15,295.6,179.34,295.64Z" transform="translate(-16.32 -186.45)" style="fill:#ffbcc6"/><path d="M181.45,280.37l-3.82-1.8-4.21-1.25.16,2.76.12,1.11c.61,2.72,4.72,6.09,6.18,7.21.24-2.51.48-4.79.55-5.17A10.59,10.59,0,0,1,181.45,280.37Z" transform="translate(-16.32 -186.45)" style="fill:url(#Degradado_sin_nombre_9)"/><path d="M193.34,271.22c-.57-.49-1.31-.74-1.91-1.19-1.38-1-1.81-2.9-2.4-4.53-2.21-6.13-9.79-9.64-14.41-6.44-1.12.77-2.36.23-3.4,1.09a6.73,6.73,0,0,0-1.57,1.67,6.15,6.15,0,0,0-.66,2.78c-.28,6.5,3.11,12.81,8,17.11,1.89,1.67,4.2,3.14,6.73,3.08A7.18,7.18,0,0,0,189,282a8.62,8.62,0,0,0,1.31-2.35c-1.49-1.08-3.71-3.11-3.71-3.11s2.65.16,4.37.23c0-.16,0-.31,0-.47a2.81,2.81,0,0,1,.51-1.88c.63-.64,1.84-.5,2.34-1.24A1.62,1.62,0,0,0,193.34,271.22Z" transform="translate(-16.32 -186.45)" style="fill:#ffbcc6"/><path d="M175.23,269.73a2.33,2.33,0,0,0-1.86,2.19c0,1.8,1.9,2.9,3.55,3.59-.45,1.78-2.62,3.72-2.89,5.54-1.38-1.63-.95-3.39-2.32-5a32.61,32.61,0,0,1-4.4-6.07c-1.15-2.22-1.46-2.06-1-4.52.77-3.75,4.15-6.6,7.86-7.54s7.67-.24,11.26,1.08a2.17,2.17,0,0,1,1.26.87,2.41,2.41,0,0,1,.1,1.36c-.28,2.69-.17,2.94-1.78,5.11a8.32,8.32,0,0,1-2.19,1.9c-1.19.79-2.93,2.12-4.36,2.38S176.68,269.47,175.23,269.73Z" transform="translate(-16.32 -186.45)" style="fill:#524e64"/><path d="M188.69,269.83c.12.57.08,1.07-.1,1.11s-.43-.39-.56-1-.07-1.08.11-1.12S188.56,269.25,188.69,269.83Z" transform="translate(-16.32 -186.45)" style="fill:#524e64"/><path d="M172.49,335.36l18.92.94s2.46-19.95-1.41-32.17c-3.09-8.66-17.47-14.38-17.47-14.38Z" transform="translate(-16.32 -186.45)" style="fill:#9092ee"/><path d="M172,303.64h-1.85v-4.5a7.92,7.92,0,0,1,15.84,0h-1.85a6.07,6.07,0,0,0-12.14,0Z" transform="translate(-16.32 -186.45)" style="fill:#524e64"/><polygon points="189.63 110.66 177.63 110.48 180.7 118.03 194.75 116.45 205.48 91.71 201.51 93.46 189.63 110.66" style="fill:#ffbcc6"/><rect x="134.68" y="99.33" width="22.45" height="44.48" rx="7.4" ry="7.4" style="fill:#ffdb90"/><path d="M151,306.44v16.42a7.42,7.42,0,0,0,7.4,7.4h7.65a7.42,7.42,0,0,0,7.4-7.4V306.44Z" transform="translate(-16.32 -186.45)" style="fill:#524e64"/><path d="M155.54,308.89v7.22a6.35,6.35,0,0,0,6.36,6.35h0a6.35,6.35,0,0,0,6.35-6.35v-7.22Z" transform="translate(-16.32 -186.45)" style="fill:#ffdb90"/><rect x="140.61" y="123.81" width="10.01" height="0.74" style="fill:#524e64"/><path d="M157.72,293.45v4.74a4.18,4.18,0,0,0,4.18,4.18h0a4.18,4.18,0,0,0,4.17-4.18v-4.74Z" transform="translate(-16.32 -186.45)" style="fill:#524e64"/><path d="M170.23,321.21l-.52-1.77a22.6,22.6,0,0,0,6.68-3.53c4.26-3.3,6.27-7.53,6-12.59l1.84-.1C185,316.81,170.37,321.17,170.23,321.21Z" transform="translate(-16.32 -186.45)" style="fill:#524e64"/><rect x="142.31" y="107.9" width="6.58" height="0.48" style="fill:#ffdb90"/><path d="M172.83,307.8a.92.92,0,0,1-.92-.92v-13.7a6.48,6.48,0,0,0-6.48-6.47h-7.65a6.47,6.47,0,0,0-6.47,6.47.93.93,0,1,1-1.85,0,8.33,8.33,0,0,1,8.32-8.32h7.65a8.33,8.33,0,0,1,8.33,8.32v13.7A.93.93,0,0,1,172.83,307.8Z" transform="translate(-16.32 -186.45)" style="fill:#524e64"/><path d="M131.78,106.58h3.39a0,0,0,0,1,0,0v5.3a0,0,0,0,1,0,0h0a3.39,3.39,0,0,1-3.39-3.39v-1.91A0,0,0,0,1,131.78,106.58Z" style="fill:#524e64"/><path d="M194,296.94h0l-13.49-.22a4.82,4.82,0,1,0,.18,9.6L197,304.48Z" transform="translate(-16.32 -186.45)" style="fill:#9da2f4"/><path d="M217.11,281.15a25.25,25.25,0,0,0,1.85-5.79c0-.29-1.41-2-1.36-2.27.26-1.71,1.13-1.87,1.44-1.95.53-.13.53-2.77.49-4.11a.77.77,0,0,1,.77-.79h0a.76.76,0,0,1,.77.64l.61,3.51,1.76-.22s2,.12,2.36,1.09c.56,1.72-1.43,6.38-1.43,6.38l-2.5,1.4Z" transform="translate(-16.32 -186.45)" style="fill:#ffbcc6"/><path d="M301.13,290.49l-.86,1.43a29.09,29.09,0,0,1-3.53-1.77c-.06-.23-.4-1.88-.4-1.88l1.2-.06Z" transform="translate(-16.32 -186.45)" style="fill:#f5fcff"/><path d="M296.43,297c.53.65,1.1,1.46.83,2.25-.19.55-.73.9-1,1.4-.67,1.18.25,2.63.23,4a.64.64,0,0,1-.13.44c-.18.19-.5.11-.74,0-2.15-.85-4.15-2.07-6.36-2.74-1.91-.58-4-.74-5.74-1.64A3.46,3.46,0,0,1,282,299.4c-.75-1.32,0-3,.95-4.17a11.48,11.48,0,0,1,4.92-3.44C292.06,290.3,294.12,294.21,296.43,297Z" transform="translate(-16.32 -186.45)" style="fill:#524e64"/><polygon points="259.07 233.25 272.92 233.68 262.9 230.27 284.96 155.09 268.64 151.07 259.07 233.25" style="fill:#ffbcc6"/><path d="M289.69,302.76a63.34,63.34,0,0,0-6.41-1.32c2.47-7.25,0-15.14-.1-22.8a3.56,3.56,0,0,1,.25-1.62,2.78,2.78,0,0,1,1.94-1.29c3.35-.73,6.66,2.06,7.75,5.3,1.27,3.76-.07,6.07-.77,9.82C292.18,291.75,289.5,302.71,289.69,302.76Z" transform="translate(-16.32 -186.45)" style="fill:#ffbcc6"/><path d="M304,289.05a2.18,2.18,0,0,0-.73-.75l-.84-.62c.23-2.08,1.88-4.89,1.3-7.69-.21-1-1.2-4.31-2-5-13.08-12.1-16.16,12.84-16.16,12.84l0,1.49a3.78,3.78,0,0,0,2.16,3.38c3.6,1.7,8.67,5,10,4.2a8,8,0,0,0,2.09-2.07,11.37,11.37,0,0,1-2.56-5,36.86,36.86,0,0,1,4.25,1.73A15.13,15.13,0,0,0,302,290c.4,0,.8.07,1.21.08a1,1,0,0,0,.54-.08A.74.74,0,0,0,304,289.05Z" transform="translate(-16.32 -186.45)" style="fill:#ffbcc6"/><path d="M302.6,281.91c-.37-1.18-1.63-.69-2.68-.49.31-.51.59-1,.86-1.56,2.82-5.7-3.42-5.58-6.76-2.74a9.63,9.63,0,0,0-3.35,7c0,.8.06,1.59,0,2.39a6.18,6.18,0,0,1-.73,2.36,1.59,1.59,0,0,0,1.4-.41,2.41,2.41,0,0,1-.11,1.33c2.19-1.18,4.45-3.69,6.13-5.52.29.36,2.39.85,2.75,1.14C300.86,286.05,302.64,282,302.6,281.91Z" transform="translate(-16.32 -186.45)" style="fill:url(#Degradado_sin_nombre_9-2)"/><path d="M290,307.6l-16.72,21L269,348.1l-3.1-1.27,2.46-20.7L282.05,305a4.17,4.17,0,0,1,2.43-2.76h0A4.16,4.16,0,0,1,290,307.6Z" transform="translate(-16.32 -186.45)" style="fill:#f9a3b3"/><polygon points="317.04 101.88 321.1 106.27 312.35 134.04 308.88 128.73 317.04 101.88" style="fill:#f5fcff"/><polygon points="321.1 106.27 326.84 113.13 324.48 107.87 317.04 101.88 321.1 106.27" style="fill:#dee4ed"/><polygon points="312.35 134.04 314.14 132.54 321.1 106.27 312.35 134.04" style="fill:#dee4ed"/><polygon points="314.14 132.54 316.14 134.35 321.1 106.27 314.14 132.54" style="fill:#bec6ff"/><polygon points="321.1 106.27 323.69 113.45 326.28 114.42 326.84 113.13 321.1 106.27" style="fill:#c7e0ea"/><polygon points="326.28 114.42 321.1 106.27 326.84 113.13 326.28 114.42" style="fill:#dee4ed"/><path d="M289,282a2.35,2.35,0,0,0-2.46,1.53c-.58,1.72.94,3.38,2.32,4.56-1,1.57-3.82.78-4.64,2.45-.83-2-5.71-8.54-6.13-11s2.3-4.14,3.54-6.35c1.89-3.38,6-5.08,9.89-4.84s7.46,2.12,10.51,4.5A2.19,2.19,0,0,1,303,274a2.4,2.4,0,0,1-.32,1.34c-1.1,2.5-1.07,2.78-3.29,4.37a8.71,8.71,0,0,1-2.69,1.16c-1.39.39-3.32,3.12-4.79,2.93S290.49,282.14,289,282Z" transform="translate(-16.32 -186.45)" style="fill:#524e64"/><path d="M282.77,342.91l19.12.95s-3.42-10.76-3.65-15.95c-.21-4.81,2.6-15,1.3-19.11-3.12-8.75-16.74-12-16.74-12l0,30.73Z" transform="translate(-16.32 -186.45)" style="fill:#f5fcff"/><path d="M306.12,311h0l-10.43-6.29a4.35,4.35,0,1,0-4.22,7.58l13.62,6Z" transform="translate(-16.32 -186.45)" style="fill:#ffbcc6"/><polygon points="296.8 225.67 293.97 191.71 281.35 149.57 271.14 168.61 285.54 193.01 295.49 231.4 304.01 222.02 296.8 225.67" style="fill:#f9a3b3"/><path d="M315.41,316.57,306.12,311l-1,7.28,9.39,4.13a4.31,4.31,0,0,0,4.31-.47l17.59-13-3.9-.43Z" transform="translate(-16.32 -186.45)" style="fill:#ffbcc6"/><path d="M337.44,306.88a3.43,3.43,0,1,1-3.42-3.43A3.42,3.42,0,0,1,337.44,306.88Z" transform="translate(-16.32 -186.45)" style="fill:#ffbcc6"/><path d="M298.46,328.29l-15.83-.21-8,34.71s10.71,6.53,16.79,7.29,15.77-5.89,15.77-5.89Z" transform="translate(-16.32 -186.45)" style="fill:#9092ee"/><path d="M302.93,281.33l-.45.67a3.74,3.74,0,0,0-3.35-.54,22.83,22.83,0,0,0-2.49.85s2.82-2,3.74-2A5.89,5.89,0,0,1,302.93,281.33Z" transform="translate(-16.32 -186.45)" style="fill:#524e64"/><path d="M301,285.07c-.18.57-.52,1-.74.89s-.25-.59-.06-1.15.51-1,.73-.89S301.14,284.51,301,285.07Z" transform="translate(-16.32 -186.45)" style="fill:#524e64"/><path d="M261.8,368.08l-1.45-.47,6.45-17.68a.76.76,0,0,1,1-.49h0a.76.76,0,0,1,.49,1Z" transform="translate(-16.32 -186.45)" style="fill:#524e64"/><rect x="244.67" y="361.04" width="22.94" height="48.65" rx="10.19" ry="10.19" transform="translate(115.13 -246.7) rotate(17.98)" style="fill:#ffdb90"/><rect x="231.06" y="384.54" width="48.65" height="1.14" transform="matrix(0.31, -0.95, 0.95, 0.31, -206.08, 322.69)" style="fill:#524e64"/><rect x="265.9" y="346.06" width="4.39" height="4.77" rx="1.18" ry="1.18" transform="translate(104.32 -252.19) rotate(17.98)" style="fill:#524e64"/><path d="M254.49,413.85a3.24,3.24,0,1,1-2.09-4.08A3.25,3.25,0,0,1,254.49,413.85Z" transform="translate(-16.32 -186.45)" style="fill:#524e64"/><circle cx="250.26" cy="160.79" r="3.17" style="fill:#f9a3b3"/><path d="M287.6,297.76c0,2.66,3.17,5,2.19,7.44-.53,1.33-2,1.94-3.41,2.31a26.8,26.8,0,0,1-6,.86c-2,.05-4.3-.36-5.12-2.14-1-2.11.88-4.46.84-6.78-.06-3.73-4.74-5.87-5.47-9.53a5.71,5.71,0,0,1,2.22-5.44c1.2-.93,2.78-1.53,3.44-2.89.47-1,.34-2.13.62-3.18a8.48,8.48,0,0,1,2.86-3.79,11.12,11.12,0,0,1,4.67-3c2.47-.57,5,.58,7.18,1.86a3.83,3.83,0,0,1,1.63,1.45c.78,1.52-.65,3.32-2.23,4-3.26,1.36-9.56,3.09-5,7,1.32,1.13,3.11,1.5,3.66,3.28C290.7,292.4,287.56,294.84,287.6,297.76Z" transform="translate(-16.32 -186.45)" style="fill:#524e64"/><path d="M274.52,289.72a6,6,0,0,1-1,3.24c-1.27,1.47-4,1.41-4.66,3.25a3,3,0,0,0,.41,2.37,11.17,11.17,0,0,0,2.77,3.13c2.69,2.24,6.15,4,9.59,3.39a2.48,2.48,0,0,0,1.26-.52,2.65,2.65,0,0,0,.64-1,11.65,11.65,0,0,0-4-13.75,14.81,14.81,0,0,0-3.48-2.21C274.82,287.29,274.66,288.63,274.52,289.72Z" transform="translate(-16.32 -186.45)" style="fill:#524e64"/><rect x="266.31" y="140.64" width="15.85" height="2.24" style="fill:#524e64"/><path d="M275.25,417.46l-.36,2.26,14.35.42s-4-1.76-4.2-1.69a12.82,12.82,0,0,1-3,.63C281.1,419.08,275.25,417.46,275.25,417.46Z" transform="translate(-16.32 -186.45)" style="fill:#524e64"/><polygon points="294.05 228.35 295.49 231.4 304.55 222.21 303.63 221.58 301.59 222.99 300.6 225.03 294.05 228.35" style="fill:#524e64"/><path d="M288.23,292.69a5.63,5.63,0,0,1,2.44,4.71,4.64,4.64,0,0,1-3.06,4.2,8.46,8.46,0,0,1-2.75.24c-1.61,0-3.43-.18-4.45-1.43a4.7,4.7,0,0,1-.69-3.64,13.63,13.63,0,0,1,1.49-4.61c.61-1.14,1.69-2.66,3.11-2a18.88,18.88,0,0,1,1.82,1.34C286.83,291.9,287.57,292.23,288.23,292.69Z" transform="translate(-16.32 -186.45)" style="fill:#524e64"/><path d="M296.29,283.58a7.45,7.45,0,0,1-5.49,3.73,5.86,5.86,0,0,0,3.08-3.31,4,4,0,0,1-2.41,1.34c1.43-2.23,2.86-4.44,4.3-6.66a4,4,0,0,1,1.49-1.56,5.89,5.89,0,0,1,3.49-.23,13.34,13.34,0,0,1-2.1,3.23Z" transform="translate(-16.32 -186.45)" style="fill:#524e64"/><path d="M268.35,290c-.23-2.48,1.64-4.54,3.32-5.54a19.4,19.4,0,0,1,5.23-1.9l1.13-.29c2-.56,4.32-1.35,5.85-3.05l.11.1a11.83,11.83,0,0,1-5.92,3.09l-1.13.3a19.31,19.31,0,0,0-5.19,1.88c-1.64,1-3.47,3-3.24,5.39Z" transform="translate(-16.32 -186.45)" style="fill:#524e64"/><path d="M269.42,283.58l-.14-.05a3.53,3.53,0,0,1,1.58-2.23,3.62,3.62,0,0,1,1.85-.14h.15a17.44,17.44,0,0,0,4.33-.15,4.5,4.5,0,0,0,2.46-1l.11.11a4.63,4.63,0,0,1-2.55,1,17.75,17.75,0,0,1-4.37.15h-.14a2.58,2.58,0,0,0-3.28,2.27Z" transform="translate(-16.32 -186.45)" style="fill:#524e64"/><path d="M295.43,286.81a.79.79,0,0,0-.16.5c0,.29.29.49.55.63a3.91,3.91,0,0,0,2.08.41.94.94,0,0,0,.29-.06.68.68,0,0,0,.23-.18,1.15,1.15,0,0,0,.2-1.15C298.13,285.68,296.11,285.82,295.43,286.81Z" transform="translate(-16.32 -186.45)" style="fill:none"/></g></svg>