<svg xmlns="http://www.w3.org/2000/svg" viewBox="0 0 1100 800"><title>todo</title><g id="Background"><rect width="1100" height="800" style="fill:#fff"/></g><g id="Shadow"><path d="M504,626.12c-28.19.08-56.38.76-84.52,3.89-10.62,1.18-21,3.78-31.64,4.82-21.24,2.09-42.11,6-63.43,7.8-17.16,1.45-34.4,2.3-51.52,4.14a181.41,181.41,0,0,1-49.74-1.52c-11.79-2.11-23.64-3.3-35.23-6.68-13-3.79-27-6.5-40.56-6.4-19.27.13-38,.15-56.47,6.84-6.47,2.35-14.39,6.21-19.31,11.14C60.29,661.43,58.77,689.58,70,701.28c18.92,19.69,59.31,27.42,85.83,27.79,29.06.39,57.29-1.76,86.4-3,27-1.18,54-2.86,81.11-2.8,55.33.12,110.67,0,165.89-3.69,51.89-3.48,103.91-2.28,155.91-2.28,53.33,0,106.29.41,159.24,7.5,23.06,3.09,46.56,4.17,69.75,6.33,20.76,1.94,40.71,0,61.39-1.82a146.59,146.59,0,0,0,50.39-13.51c12.49-6,34.75-24.5,38.58-38.75,10.74-39.93-151.3-39-176.18-38.88-27.83.1-55.88,1-83.69,0-11.7-.44-23.23-2.73-34.64-5.24s-22.83-1.86-34.37-2.91c-48.09-4.37-96.29-3.73-144.53-3.73C535.38,626.21,519.67,626.07,504,626.12Z" style="fill:#f1f2f2"/></g><g id="Object"><polygon points="139.54 465.58 136.04 546.9 146.31 685.16 161.69 686.26 180.38 560.68 206.23 454.41 139.54 465.58" style="fill:#9ea6ad"/><polygon points="161.15 692.74 143.92 699.87 136.2 690.96 145.1 683.24 161.74 684.42 161.15 692.74" style="fill:#1a3151"/><polygon points="248.41 436.8 251.78 498.27 241.77 681.03 226.37 681.8 203.29 561.93 182.94 430.48 248.41 436.8" style="fill:#9ea6ad"/><polygon points="226.78 688.29 243.85 695.79 251.76 687.04 243.02 679.13 226.37 679.97 226.78 688.29" style="fill:#1a3151"/><path d="M135.51,260.87,182,247.77s26.84-1.65,55.32,57.92c15.84,33.14,28.16,87.49,36,129.2-.11,6.15-2.18,33.39-30.42,33.61-48.49.38-74.91-3-94.82,4.31-16.86,6.77-19.47-17.59-20.66-36.32l-2.66-58.1Z" style="fill:#145566"/><path d="M134.68,200.34c11.49-4.65,23.39-9.09,35.74-8.75,2.71.08,5.67.51,7.47,2.53a10.64,10.64,0,0,1,1.6,2.7c4.92,10.7,11.56,26.68,5.93,38.26a18.7,18.7,0,0,1-4.52,5.7,26.58,26.58,0,0,1-8.25,5,48.68,48.68,0,0,0,4.06,7.69c-2,4.58-14.71,7.24-17.74,3.68l-2.13-10.19a25.16,25.16,0,0,1-4.85-1.56c-6.06-2.67-10.57-7.51-13.69-13.25-3.4-6.25-7.66-12-10.88-18.43-1.17-2.33-2.24-5-1.33-7.49,1-2.61,3.83-3.92,6.4-5Z" style="fill:#aa6755"/><path d="M175.51,200c-6.54-2.79-15.68-2.93-21.16-1.58-16.57,4.05-20.63,17.41-18.92,33-5.61-5.09-15.54-11-17.34-18.48-1.48-6.12-2-14.7.51-20.63,2.4-5.55,10.23-9.7,14.67-13.43l12.56-10.56a7.13,7.13,0,0,1,6.84-2.08l34.41,2.94c2.2.19,4.74.58,5.87,2.48a7,7,0,0,1,.57,3.94c-.28,5.91-1.69,12.15-1.3,18-.11,3.47.81,21-5.48,20-2.22-2.56-3.08-6-5-8.86A13.88,13.88,0,0,0,175.51,200Z" style="fill:#1a3151"/><polygon points="182.03 247.77 200.44 250.13 275.74 306.3 283.29 327.74 261.26 383.39 249.87 366.29 256.5 326.79 233.49 315.81 195.64 258.78 182.03 247.77" style="fill:#145566"/><rect x="240.05" y="159.72" width="397.42" height="525.72" transform="translate(-35.28 40) rotate(-5.02)" style="fill:#3ababa"/><rect x="259.84" y="176.48" width="357.33" height="486.4" transform="translate(-35.03 39.96) rotate(-5.02)" style="fill:#fcfcfc"/><rect x="340.02" y="174.82" width="155.19" height="14.44" transform="translate(-14.32 37.22) rotate(-5.02)" style="opacity:0.12"/><path d="M458.77,127.33l-2.4.21-.14-1.6c-1.33-15.1-16.59-26.1-34.09-24.57l-23.05,2c-17.5,1.53-30.62,15-29.29,30.13l.14,1.6-2.4.21c-17.5,1.54-30.61,15-29.28,30.13L341,196l154.59-13.57-2.68-30.55C491.53,136.79,476.27,125.8,458.77,127.33Zm-25.19,2.85-40.73,3.57a7.53,7.53,0,1,1-1.32-15l40.73-3.58a7.53,7.53,0,1,1,1.32,15Z" style="fill:#e8ebed"/><g style="opacity:0.47000000000000003"><path d="M352.58,364.21l-52.27,4.59a2.75,2.75,0,0,0-2.48,2.93q2.28,25.9,4.55,51.81a2.76,2.76,0,0,0,3,2.46l52.26-4.59a2.54,2.54,0,0,0,1.78-.88l.09-.1,0-.05a2.5,2.5,0,0,0,.58-1.91l-4.56-51.8A2.75,2.75,0,0,0,352.58,364.21Zm1.83,52-46.82,4.11L303.51,374l46.82-4.11Z" style="fill:#879195"/><path d="M361,460l-52.27,4.58a2.76,2.76,0,0,0-2.48,2.94q2.28,25.91,4.55,51.81a2.76,2.76,0,0,0,3,2.46L366,517.2a2.51,2.51,0,0,0,1.78-.89l.09-.09,0-.06a2.46,2.46,0,0,0,.58-1.9L364,462.45A2.75,2.75,0,0,0,361,460Zm1.83,52L316,516.15l-4.08-46.41,46.82-4.11Z" style="fill:#879195"/><path d="M369.42,555.78l-52.27,4.59a2.76,2.76,0,0,0-2.48,2.94q2.28,25.91,4.55,51.81a2.76,2.76,0,0,0,3,2.45L374.44,613a2.55,2.55,0,0,0,1.78-.89l.09-.09,0-.06a2.46,2.46,0,0,0,.58-1.9l-4.56-51.81A2.75,2.75,0,0,0,369.42,555.78Zm1.83,52.05-46.82,4.11-4.08-46.41,46.82-4.11Z" style="fill:#879195"/></g><polygon points="319.64 386.85 331.3 381.83 339.02 393.15 392.81 347.1 399.6 347.83 337.63 407.94 319.64 386.85" style="fill:#3ababa"/><polygon points="323.92 485.45 335.58 480.43 343.3 491.75 397.08 445.69 403.87 446.43 341.91 506.54 323.92 485.45" style="fill:#3ababa"/><polygon points="330.8 576.21 342.46 571.18 350.18 582.5 403.96 536.45 410.75 537.19 348.79 597.29 330.8 576.21" style="fill:#3ababa"/><rect x="405.62" y="565.74" width="185.08" height="26" transform="translate(-48.71 45.79) rotate(-5.02)" style="fill:#879195;opacity:0.32"/><rect x="396.7" y="464.28" width="185.08" height="26" transform="translate(-39.87 44.62) rotate(-5.02)" style="fill:#879195;opacity:0.32"/><rect x="387.78" y="362.83" width="185.08" height="26" transform="translate(-31.03 43.45) rotate(-5.02)" style="fill:#879195;opacity:0.32"/><polygon points="155.19 290.14 148.64 342.39 233.44 399.19 228.79 414.35 120.51 372.93 110.86 337.61 135.51 260.87 155.19 290.14" style="fill:#145566"/><polygon points="229.78 411.1 236.49 416.88 253.37 417.97 253.21 408.62 241.14 404.25 239.9 399.37 233.44 399.19 229.78 411.1" style="fill:#aa6755"/><polygon points="966.19 672.91 967.03 681.12 951.44 691 942.39 683.63 949.77 674.58 965.36 664.7 966.19 672.91" style="fill:#14263a"/><polygon points="966.8 422.42 969.33 447.35 947.06 558.8 966.78 670.18 950.83 675.09 899.23 542.66 896.4 502.18 903.39 418.32 966.8 422.42" style="fill:#145566"/><polygon points="845.86 430.9 845.35 536.26 866.11 671.96 881.38 671.86 890.18 546.46 910.23 420.99 845.86 430.9" style="fill:#145566"/><polygon points="881.33 678.29 864.88 686.66 856.57 678.46 864.77 670.15 881.28 670.04 881.33 678.29" style="fill:#14263a"/><path d="M833,415.44c11-34.11,12.18-69.93,15.39-105.47,1-10.48,2-21.2,6.32-30.78,5-11,13.3-16.8,22.95-20,12.28-4,26.78-3.81,39.56-4.59,12.11-.38,22.84,45.18,35.2,67.27,7.58,13.53,15.38,25.5,20.49,40.27,4.91,14.17,9.62,28.59,12.47,43.33,4.31,22.26,15.33,37.8,4.81,45.38-1,.32-1.9.63-2.78.95A258.92,258.92,0,0,1,934.1,465a213,213,0,0,1-48.73.92c-22.17-2.19-43.66-5.32-63.21-16.88Q827.58,432.23,833,415.44Z" style="fill:#d1e7f5"/><polygon points="756.96 346.43 832.96 323.73 858.75 272.29 872.98 298.6 856.57 346.43 773.39 362.9 756.96 346.43" style="fill:#d1e7f5"/><rect x="762.18" y="194.84" width="76.35" height="282.07" transform="translate(1604.07 8.14) rotate(135.05)" style="fill:#ebb044"/><polygon points="727.73 209.09 652.55 187.81 673.7 263.03 727.73 209.09" style="fill:#edeeef"/><polygon points="680.76 195.8 652.55 187.81 660.48 216.03 680.76 195.8" style="fill:#145566"/><path d="M907.06,482.43l40.12-40a9.85,9.85,0,0,0,0-13.91L927,408.72l-54,53.94,20.18,19.76A9.83,9.83,0,0,0,907.06,482.43Z" style="fill:#fff"/><polygon points="872.98 462.66 927.01 408.72 916.92 398.62 862.47 452.13 872.98 462.66" style="fill:#ededef"/><path d="M923.14,220.72c-6.9-20.84-37.32-28.1-44.39-3.88-2.13,7.28-3.41,15-2,22.45s6,14.59,12.94,17.64l.12.05c-.27,1.93-.55,3.87-.82,5.8a1.31,1.31,0,0,0,1.39,1.79l6.92,1a7.68,7.68,0,0,0,3.44,0c2.41-.77,3.41-3.66,3.52-6.19,0-.6,0-1.22,0-1.83C918,252.9,927.66,234.35,923.14,220.72Z" style="fill:#eac1a4"/><path d="M886.08,185.13c-5.57-.83-10.31,4.57-15.45,7.41-4.27,2.36-9.12,3-13.55,4.94s-8.79,6-8.88,11.14c-4.49-2.33-9.36-4.73-14.39-3.76s-9.7,7-7.7,11.93c1.8,4.43,7.58,5.48,9.51,9.84,3,6.91-5.19,17.63.43,22.21,1.35,1.1,3.18,1.37,4.51,2.5,1.65,1.41,2.18,3.83,2.91,6,3.33,9.74,13.15,16.1,22.85,14.8,6-2.82,10.84-8.66,13-15.35,2.6-8-1.71-10.87-2.44-18.43a32.91,32.91,0,0,1,7-23.43c3.38-4.18,8.23-7.78,13.35-8.27,2.08-.2,1.42,1.54,3.77-.07,1-.69,2.37-3.31,2.66-4.56C898.1,197.5,893.41,186.22,886.08,185.13Z" style="fill:#1a3151"/><path d="M946.33,195.84c2.87.8,6,.69,8.73,1.89,4.11,1.8,3.86,6.07,5,9.78,1.29,4.1,3.17,9.61,5.87,12.8,1.95,2.3,4.68,3.61,7.06,5.39s4.56,4.39,4.51,7.59c0,3-2.09,5.76-2.38,8.78-.37,4.52.41,6.83-1,11.44-.72,2.38-1.52,4.91-3.31,6.53-2.35,2.14-5.7,2.1-8.65,1.6s-6-1.3-8.89-.33c-6.3,2.12-5.13,8.49-6.8,13.83-2.56,8.13-12,12.87-19.18,10-6.11-2.45-9.65-9.55-9.38-16.55.14-3.51,1.54-6.78,1.64-10.29s-1.81-8.07,1.26-10.76a24.06,24.06,0,0,0,2.37-1.74,5,5,0,0,0,1-2.22,9.73,9.73,0,0,0-1.61-8c-1.19-1.54-2.89-2.67-3.62-4.52-.83-2.13-.17-4.62,0-7,.34-5.69-2.77-11.26-7.5-13.46-3.12-1.45-5.94-2.3-8.66-4.5-.42-.34-6.63-5.82-6.79-4.64a12.55,12.55,0,0,1,2.71-5.52c2-2.72,4.23-5.37,7.06-7,9.13-5.27,9.57,7,16.91,5.37,1.76-.39,3.1-2,4.69-3,3-1.83,6.7-1.18,9.78.19S943.09,194.94,946.33,195.84Z" style="fill:#1a3151"/><polygon points="754.52 357.13 763.52 355.21 774.81 363.85 766.28 373.8 757.75 366.83 754.52 357.13" style="fill:#eac1a4"/><polygon points="853.69 385.97 847.64 392.44 830.98 395.32 830.13 386.01 841.66 380.37 842.37 375.38 848.78 374.52 853.69 385.97" style="fill:#eac1a4"/><polygon points="838.04 374.17 914.04 351.46 939.84 300.03 954.06 326.34 937.66 374.17 854.48 390.64 838.04 374.17" style="fill:#d1e7f5"/><text transform="matrix(1, -0.1, 0.1, 1, 283.71, 272.06)" style="font-size:57.528045654296875px;fill:#145566;font-family:Poppins, Poppins;font-weight:700">CHECK IN</text></g></svg>