<svg xmlns="http://www.w3.org/2000/svg" xmlns:xlink="http://www.w3.org/1999/xlink" viewBox="0 0 490.94 397.24"><defs><linearGradient id="linear-gradient" x1="211.62" y1="402.78" x2="380.87" y2="402.78" gradientUnits="userSpaceOnUse"><stop offset="0" stop-color="#d1d1d1" stop-opacity="0"/><stop offset="0.72" stop-color="#42251c"/></linearGradient><linearGradient id="linear-gradient-2" x1="301" y1="400.41" x2="301" y2="319.75" gradientUnits="userSpaceOnUse"><stop offset="0.54" stop-color="#42251c"/><stop offset="0.7" stop-color="#472c23" stop-opacity="0.96"/><stop offset="0.8" stop-color="#5a413a" stop-opacity="0.84"/><stop offset="0.88" stop-color="#796761" stop-opacity="0.62"/><stop offset="0.95" stop-color="#a49b98" stop-opacity="0.31"/><stop offset="1" stop-color="#d1d1d1" stop-opacity="0"/></linearGradient><linearGradient id="linear-gradient-3" x1="35.75" y1="421.9" x2="173.65" y2="421.9" xlink:href="#linear-gradient"/><linearGradient id="linear-gradient-4" x1="294.17" y1="258.21" x2="280.53" y2="234.58" gradientUnits="userSpaceOnUse"><stop offset="0" stop-color="#e7b28d"/><stop offset="1" stop-color="#e09874"/></linearGradient><linearGradient id="linear-gradient-5" x1="173.84" y1="323.71" x2="168.66" y2="314.73" xlink:href="#linear-gradient-4"/><linearGradient id="linear-gradient-6" x1="249.14" y1="245.48" x2="229.56" y2="245.48" xlink:href="#linear-gradient-4"/><linearGradient id="linear-gradient-7" x1="167.99" y1="457.69" x2="305.88" y2="457.69" xlink:href="#linear-gradient"/><linearGradient id="linear-gradient-8" x1="0" y1="451.12" x2="107.92" y2="451.12" xlink:href="#linear-gradient"/></defs><title>tourism</title><g id="OBJECTS"><g style="opacity:0.5"><path d="M456.65,302.39C443.06,250.13,397.57,234,397.57,234a167.9,167.9,0,0,1,12,30.27,134.77,134.77,0,0,0-26-30.29c-18.23-31.16-40.81-45.75-40.81-45.75,2.4,5.11,4.58,10.26,6.57,15.4-9.75-13.16-17.48-20-17.48-20,2.34,7.25,4.35,15,6.09,22.92a137.13,137.13,0,0,0-11.17-22.92,138.7,138.7,0,0,0-11.17,22.92c1.75-8,3.76-15.67,6.09-22.92,0,0-7.72,6.79-17.48,20,2-5.14,4.17-10.29,6.57-15.4,0,0-22.57,14.58-40.81,45.75a134.83,134.83,0,0,0-26,30.29A167.18,167.18,0,0,1,256,234s-45.49,16.18-59.08,68.44c-12.93-1.9-21.84-.07-21.84-.07A83,83,0,0,1,187,340.37h279.6a83,83,0,0,1,11.9-38.05S469.59,300.49,456.65,302.39Z" transform="translate(0 -64)" style="fill:#4ca3a8;opacity:0.5"/><polygon points="238.38 122.83 234.39 122.83 234.39 108.82 222.54 89.1 222.52 89.1 222.52 66.8 222.69 66.8 214.22 41.47 214.22 36.32 215.9 36.32 215.9 34.52 214.22 34.52 214.22 33.11 215.9 33.11 214.22 29.97 214.22 21.52 212.42 21.52 212.42 29.77 210.6 33.11 212.42 33.11 212.42 34.52 210.6 34.52 210.6 36.32 212.42 36.32 212.42 41.43 203.81 66.8 203.61 66.8 203.61 89.12 191.77 108.82 191.77 122.83 188.07 122.83 188.07 170.98 191.77 170.98 191.77 191.12 191.77 191.12 191.77 195.54 191.77 195.54 191.77 218.14 191.77 218.14 191.77 222.56 191.77 222.56 191.77 244.92 191.77 244.92 191.77 249.34 191.77 249.34 191.77 271.94 191.77 271.94 191.77 276.36 191.77 276.36 234.39 276.36 234.39 271.94 234.39 249.34 234.39 244.92 234.39 222.56 234.39 218.14 234.39 195.54 234.39 191.12 234.39 170.98 238.38 170.98 238.38 122.83" style="fill:#51aeb6;opacity:0.4"/><path d="M341.38,193.36H339.6c1.51-.62,0-1.51,0-1.51h-6.32c1.78,0,1.33-2,1.33-2s-6.67,1-7.74,1.07-2,2.85-2,2.85l-3.58-.31c.07-.57.1-1,.11-1.25V192s-30-2.23-35.06-3.74a41.42,41.42,0,0,0-4.58-1c-.42-5.18-.87-11.7-.76-14.79s-1.57-9-8.92-9-9,5.85-8.92,9-.35,9.62-.77,14.8a41,41,0,0,0-4.53,1c-5.07,1.51-35,3.74-35,3.74v.22c0,.24,0,.68.1,1.25l-3.57.31s-.9-2.76-2-2.85-7.74-1.07-7.74-1.07-.45,2,1.33,2h-6.32s-1.51.89,0,1.51h-1.78s-.95-.17-.95,1c0,.45.42.69.94.8h1.79s-1.24,1.64,2.55,1.64c0,0-1.15,1.36,2,1.36s8.52.59,9.23-.15.77-1,.77-1l4.6.75c1.1,3.61,3.42,7.87,8.38,9.41a13.59,13.59,0,0,0,4.16.61h10.5s5.51,3.39,9.25,3.54l-.07,1.43c-1.19,4.91-5,21.37-4.15,27.51.19,1.46.65,2.34,1.47,2.34h1.11c-.17,3.56-.29,6.63-.29,8.67a7.11,7.11,0,0,0,1.14,3.85v4.38a6.72,6.72,0,0,0,1.73,2.06v38.53h-2.59v4.57H251.9v29.4h-.66a3.16,3.16,0,0,0,0,6.31H293.5a3.16,3.16,0,0,0,0-6.31h-1.07v-29.4h-2.57v-4.57h-2.17V279.41h1.85V260.23a.85.85,0,0,0,.67-.3,3.13,3.13,0,0,0,.41-1.64,10.64,10.64,0,0,1,1.81,2.7s-1.66-15-3.42-31.44l-1.12-18.21c3.74,0,9.52-3.56,9.52-3.56h10.51a13.59,13.59,0,0,0,4.16-.61c5-1.54,7.28-5.8,8.38-9.41l4.6-.75s.06.3.77,1,6.08.15,9.23.15,2-1.36,2-1.36c3.79,0,2.55-1.64,2.55-1.64h1.79c.52-.11.94-.35.94-.8C342.33,193.19,341.38,193.36,341.38,193.36Z" transform="translate(0 -64)" style="fill:#4ca3a8"/><path d="M78.91,311.59l-.43-8.87h0L78,293.84h0L77.6,285h0l-.44-8.87h0l-.44-8.88h0l-.29-5.71h3.08l4.31-16.38a58.8,58.8,0,0,0-8.23-1.65l-.28-6.19h0L75,229.8h0l-.38-7.48h0l-.36-7.47h0l-.37-7.48h0l-.37-7.47h0l-.24-4.81h2.39l3.62-13.74A50.5,50.5,0,0,0,72.41,180L70.49,141.2h.43l2.72-10.33a29.16,29.16,0,0,0-4-.85l-1.39-18.68,2.22-8.46a25.19,25.19,0,0,0-3-.65A180,180,0,0,0,65,76.54H47.59a180,180,0,0,0-2.53,25.69,25.19,25.19,0,0,0-3,.65l2.22,8.46L42.9,130a29.49,29.49,0,0,0-4,.85l2.72,10.33h.21L39.93,180a49.09,49.09,0,0,0-6.87,1.37l3.62,13.74h2.39l-.24,4.81-.37,7.47-.37,7.48-.37,7.47-.37,7.48L37,237.28l-.28,6.23a57.54,57.54,0,0,0-8,1.61l4.31,16.38h2.82l-.28,5.71-.44,8.88L34.71,285l-.44,8.88-.44,8.88-.44,8.87L32.1,340.37H80.2l-1.29-28.78Z" transform="translate(0 -64)" style="fill:#4ca3a8"/><polygon points="47.59 9.06 47.59 11.73 56.28 11.73 64.97 11.73 64.97 9.06 56.28 9.06 47.59 9.06" style="fill:#4ca3a8"/><path d="M56.28,72.19H65.8S66.87,64,56.28,64s-9.53,8.19-9.53,8.19Z" transform="translate(0 -64)" style="fill:#4ca3a8"/><g style="opacity:0.5"><rect x="123.83" y="140.12" width="11.37" height="0.03" style="fill:#4ca3a8"/><path d="M214.6,249.56a3.54,3.54,0,0,0-1.79,6.6h0c-9.86,8.16-20.91,8.56-29,7.19v-3.53a3.9,3.9,0,0,0-.33-7.78H75.65a3.9,3.9,0,0,0-.33,7.78v3.53c-8.11,1.37-19.16,1-29-7.19h0a3.55,3.55,0,1,0-3.52,0,13.58,13.58,0,0,0,5.11,7.05s-2.76,3-.6,4.73c1.92,1.56,12.44,7.43,28,8.78H183.78c15.59-1.35,26.12-7.22,28-8.78,2.17-1.77-.59-4.73-.59-4.73a13.65,13.65,0,0,0,5.11-7.05,3.54,3.54,0,0,0-1.73-6.64Z" transform="translate(0 -64)" style="fill:#4ca3a8"/><path d="M114.14,334.52H75.32v0h-26a5.81,5.81,0,0,0-5.81,5.81H215.63a5.81,5.81,0,0,0-5.81-5.81h-26v0H114.14Z" transform="translate(0 -64)" style="fill:#4ca3a8"/><path d="M192,216.66c1.64-1.35-.45-3.59-.45-3.59a10.38,10.38,0,0,0,3.88-5.35,2.69,2.69,0,1,0-4-2.35,2.68,2.68,0,0,0,1.32,2.31h0c-7.49,6.2-15.88,6.51-22,5.47V210a3,3,0,0,0-.25-5.91H135.2v0H123.83v0H88.63a3,3,0,0,0-.26,5.91v3.12c-6.15,1-14.55.73-22-5.47h0a2.66,2.66,0,0,0,1.33-2.31,2.69,2.69,0,1,0-4,2.35,10.43,10.43,0,0,0,3.89,5.35s-2.1,2.24-.45,3.59c1.45,1.19,9.44,5.64,21.28,6.67h82.35C182.56,222.3,190.56,217.85,192,216.66Z" transform="translate(0 -64)" style="fill:#4ca3a8"/><path d="M170.75,192.91h.14A37.25,37.25,0,0,1,155.5,164.7h1.74a2,2,0,1,0,0-4H101.86a2,2,0,1,0,0,4h1.74a37.25,37.25,0,0,1-15.39,28.21h82.54Z" transform="translate(0 -64)" style="fill:#4ca3a8"/><path d="M123.83,197h0c0-2,2.55-3.55,5.68-3.55s5.67,1.59,5.68,3.55h0v7.08h15.5V192.91H108.4v11.21h15.43Z" transform="translate(0 -64)" style="fill:#4ca3a8"/><path d="M170.72,223.33H88.37V252h82.35ZM117.88,243.7h-11.8v-15h11.8Zm17.53,0h-11.8v-15h11.8Zm17.54,0h-11.8v-15H153Z" transform="translate(0 -64)" style="fill:#4ca3a8"/><path d="M75.32,334.52h38.82V290.07h0c0-5.31,6.9-9.61,15.36-9.61s15.33,4.3,15.36,9.61h0v44.45h38.88V276.76H75.32Zm89.45-4-11.8.05v-5l11.8,0Zm-11.82-45h11.8v5H153Zm0,10h11.8v5H153Zm0,10h11.8v5H153Zm0,10h11.8v5H153ZM94.28,285.49h11.8v5H94.28Zm0,10h11.8v5H94.28Zm0,10h11.8v5H94.28Zm0,10h11.8v5H94.28Zm0,10,11.8,0v5l-11.8-.05Z" transform="translate(0 -64)" style="fill:#4ca3a8"/></g><polygon points="490.94 276.36 460.66 276.36 30.77 276.36 9.06 276.36 9.06 280.67 30.77 280.67 30.77 284.97 95.17 284.97 95.17 289.27 229.16 289.27 229.16 284.97 272.32 284.97 272.32 289.27 406.32 289.27 406.32 284.97 460.66 284.97 460.66 280.67 490.94 280.67 490.94 276.36" style="fill:#429694"/></g><rect x="212.81" y="309.44" width="5.08" height="3.49" style="fill:none;stroke:#f90000;stroke-miterlimit:10"/><path d="M264.34,376.12a11.88,11.88,0,1,0,16.81,0A11.88,11.88,0,0,0,264.34,376.12Z" transform="translate(0 -64)" style="fill:#141212"/><path d="M343.85,376.12a11.88,11.88,0,1,0,0,16.8A11.88,11.88,0,0,0,343.85,376.12Z" transform="translate(0 -64)" style="fill:#141212"/><path d="M374.27,320.81h-53.5v67.72h53.5a5,5,0,0,0,5-5V325.81A5,5,0,0,0,374.27,320.81Z" transform="translate(0 -64)" style="fill:#fff"/><path d="M220.35,320.81a5,5,0,0,0-5,5v57.72a5,5,0,0,0,5,5H320.77V320.81Z" transform="translate(0 -64)" style="fill:#fff"/><rect x="220.79" y="266.71" width="28.23" height="27.95" rx="5" ry="5" style="fill:#282323"/><rect x="254.49" y="266.71" width="28.24" height="27.95" rx="5" ry="5" style="fill:#282323"/><rect x="288.21" y="266.71" width="28.24" height="27.95" rx="5" ry="5" style="fill:#282323"/><path d="M389.69,336.12a3.6,3.6,0,0,1-3.6,3.6h0a3.6,3.6,0,0,1-3.6-3.6V324.41a3.6,3.6,0,0,1,3.6-3.6h0a3.6,3.6,0,0,1,3.6,3.6Z" transform="translate(0 -64)" style="fill:#fff"/><path d="M385.22,331.35a1.18,1.18,0,0,1-1.65,0l-7.47-7.47a1.18,1.18,0,0,1,0-1.65h0a1.18,1.18,0,0,1,1.65,0l7.47,7.47a1.18,1.18,0,0,1,0,1.65Z" transform="translate(0 -64)" style="fill:#fff"/><rect x="322.35" y="266.71" width="55.58" height="27.95" style="fill:#282323"/><path d="M334.7,335.06a3.6,3.6,0,0,1-3.6,3.6h0a3.61,3.61,0,0,1-3.61-3.6V323.35a3.61,3.61,0,0,1,3.61-3.6h0a3.6,3.6,0,0,1,3.6,3.6Z" transform="translate(0 -64)" style="fill:#fff"/><path d="M330.23,330.29a1.16,1.16,0,0,1-1.65,0l-7.47-7.46a1.18,1.18,0,0,1,0-1.65h0a1.16,1.16,0,0,1,1.65,0l7.47,7.46a1.18,1.18,0,0,1,0,1.65Z" transform="translate(0 -64)" style="fill:#fff"/><polygon points="342.03 266.71 334.82 294.66 343.37 294.66 350.58 266.71 342.03 266.71" style="fill:#fff;opacity:0.5"/><polygon points="352.76 266.71 345.54 294.66 349.82 294.66 357.03 266.71 352.76 266.71" style="fill:#fff;opacity:0.5"/><path d="M216.4,381.32a3.63,3.63,0,0,0,0,7.25H320.77v-7.25Z" transform="translate(0 -64)" style="fill:#8fb1cd"/><path d="M381.76,384.94a3.61,3.61,0,0,0-3.6-3.62H320.77v7.25h57.39A3.62,3.62,0,0,0,381.76,384.94Z" transform="translate(0 -64)" style="fill:#8fb1cd"/><path d="M225.25,388.51a14.38,14.38,0,0,1,28.76,0Z" transform="translate(0 -64)" style="fill:#141212"/><path d="M248,380.13a11.88,11.88,0,1,1-16.8,0A11.88,11.88,0,0,1,248,380.13Z" transform="translate(0 -64)" style="fill:#282323"/><path d="M248,396.93a11.88,11.88,0,0,1-16.8-16.8Z" transform="translate(0 -64)" style="fill:#33373a"/><path d="M247.37,388.53a7.74,7.74,0,1,1-7.74-7.75A7.75,7.75,0,0,1,247.37,388.53Z" transform="translate(0 -64)" style="fill:#8fb1cd"/><path d="M246.14,388.53a6.51,6.51,0,1,1-6.51-6.52A6.5,6.5,0,0,1,246.14,388.53Z" transform="translate(0 -64)" style="fill:#0f94ce"/><path d="M243.33,388.53a3.7,3.7,0,1,1-3.7-3.7A3.7,3.7,0,0,1,243.33,388.53Z" transform="translate(0 -64)" style="fill:#3c3338"/><path d="M240.24,383.42a.61.61,0,1,1-.61-.61A.61.61,0,0,1,240.24,383.42Z" transform="translate(0 -64)" style="fill:#3c3338"/><path d="M239,393.63a.61.61,0,1,1,1.22,0,.61.61,0,0,1-1.22,0Z" transform="translate(0 -64)" style="fill:#3c3338"/><path d="M244.73,389.14a.62.62,0,0,1-.61-.61.61.61,0,0,1,.61-.61.61.61,0,0,1,.61.61A.61.61,0,0,1,244.73,389.14Z" transform="translate(0 -64)" style="fill:#3c3338"/><path d="M234.53,387.92a.61.61,0,0,1,.61.61.62.62,0,0,1-.61.61.61.61,0,0,1-.61-.61A.61.61,0,0,1,234.53,387.92Z" transform="translate(0 -64)" style="fill:#3c3338"/><path d="M236.45,384.48a.62.62,0,0,1,0,.87.6.6,0,0,1-.86,0,.62.62,0,0,1,0-.87A.62.62,0,0,1,236.45,384.48Z" transform="translate(0 -64)" style="fill:#3c3338"/><path d="M242.81,392.57a.61.61,0,1,1,.86,0A.6.6,0,0,1,242.81,392.57Z" transform="translate(0 -64)" style="fill:#3c3338"/><path d="M243.67,385.35a.6.6,0,0,1-.86,0,.62.62,0,0,1,0-.87.62.62,0,0,1,.86,0A.62.62,0,0,1,243.67,385.35Z" transform="translate(0 -64)" style="fill:#3c3338"/><path d="M235.59,391.71a.61.61,0,1,1,0,.86A.6.6,0,0,1,235.59,391.71Z" transform="translate(0 -64)" style="fill:#3c3338"/><path d="M288,388.51a14.38,14.38,0,0,1,28.76,0Z" transform="translate(0 -64)" style="fill:#141212"/><path d="M310.73,380.13a11.88,11.88,0,1,1-16.8,0A11.88,11.88,0,0,1,310.73,380.13Z" transform="translate(0 -64)" style="fill:#282323"/><path d="M310.73,396.93a11.88,11.88,0,0,1-16.8-16.8Z" transform="translate(0 -64)" style="fill:#33373a"/><path d="M310.07,388.53a7.75,7.75,0,1,1-7.74-7.75A7.75,7.75,0,0,1,310.07,388.53Z" transform="translate(0 -64)" style="fill:#8fb1cd"/><path d="M308.84,388.53a6.52,6.52,0,1,1-6.51-6.52A6.5,6.5,0,0,1,308.84,388.53Z" transform="translate(0 -64)" style="fill:#0f94ce"/><path d="M306,388.53a3.7,3.7,0,1,1-3.7-3.7A3.7,3.7,0,0,1,306,388.53Z" transform="translate(0 -64)" style="fill:#3c3338"/><path d="M302.94,383.42a.61.61,0,0,1-.61.61.61.61,0,0,1,0-1.22A.61.61,0,0,1,302.94,383.42Z" transform="translate(0 -64)" style="fill:#3c3338"/><path d="M301.72,393.63a.61.61,0,0,1,.61-.61.62.62,0,0,1,.61.61.61.61,0,0,1-.61.61A.61.61,0,0,1,301.72,393.63Z" transform="translate(0 -64)" style="fill:#3c3338"/><path d="M307.43,389.14a.61.61,0,0,1-.6-.61.61.61,0,1,1,1.21,0A.61.61,0,0,1,307.43,389.14Z" transform="translate(0 -64)" style="fill:#3c3338"/><path d="M297.22,387.92a.61.61,0,0,1,.61.61.61.61,0,0,1-.61.61.62.62,0,0,1-.61-.61A.61.61,0,0,1,297.22,387.92Z" transform="translate(0 -64)" style="fill:#3c3338"/><path d="M299.15,384.48a.62.62,0,0,1,0,.87.6.6,0,0,1-.86,0,.62.62,0,0,1,0-.87A.62.62,0,0,1,299.15,384.48Z" transform="translate(0 -64)" style="fill:#3c3338"/><path d="M305.51,392.57a.61.61,0,1,1,.86,0A.6.6,0,0,1,305.51,392.57Z" transform="translate(0 -64)" style="fill:#3c3338"/><path d="M306.37,385.35a.6.6,0,0,1-.86,0,.62.62,0,0,1,0-.87.62.62,0,0,1,.86,0A.62.62,0,0,1,306.37,385.35Z" transform="translate(0 -64)" style="fill:#3c3338"/><path d="M298.29,391.71a.61.61,0,1,1,0,.86A.6.6,0,0,1,298.29,391.71Z" transform="translate(0 -64)" style="fill:#3c3338"/><path d="M347.36,378.09h12.11s2.82,0,2.82-5.07a2.81,2.81,0,0,0-2.82-2.81H347.36a2.81,2.81,0,0,0-2.82,2.81C344.54,378.09,347.36,378.09,347.36,378.09Z" transform="translate(0 -64)" style="fill:#282323"/><line x1="220.79" y1="301.85" x2="316.45" y2="301.85" style="fill:none;stroke:#282323;stroke-miterlimit:10"/><line x1="219.23" y1="274.66" x2="317.72" y2="274.66" style="fill:none;stroke:#e5e5e5;stroke-linecap:round;stroke-linejoin:round;stroke-width:2px"/><line x1="220.79" y1="306.2" x2="316.45" y2="306.2" style="fill:none;stroke:#282323;stroke-miterlimit:10"/><rect x="330.58" y="306.2" width="8.44" height="3.49" style="fill:none;stroke:#f90000;stroke-miterlimit:10"/><rect x="366.96" y="306.2" width="8.44" height="3.49" style="fill:none;stroke:#f90000;stroke-miterlimit:10"/><path d="M378.5,405.15H214a2.37,2.37,0,1,1,0-4.74H378.5a2.37,2.37,0,1,1,0,4.74Z" transform="translate(0 -64)" style="opacity:0.2;fill:url(#linear-gradient)"/><path d="M386.09,320.81a3.6,3.6,0,0,0-3.6,3.6V327l-4.62-4.62a5,5,0,0,0-3.6-1.54H333.65a3.6,3.6,0,0,0-5.1,0H220.35a5,5,0,0,0-5,5v47.13h-3v4.49h3v4.06a3.62,3.62,0,0,0,1.05,7.08h11.36a11.87,11.87,0,0,0,23.74,0h10.08a11.87,11.87,0,0,0,22.33,0h6.54a11.88,11.88,0,0,0,23.76,0h10.08a11.62,11.62,0,0,0,2.76,4.35,11.88,11.88,0,0,0,16.8,0,11.74,11.74,0,0,0,2.76-4.35h31.55a3.62,3.62,0,0,0,1.11-7.06V327.05l3.22,3.21v5.86a3.6,3.6,0,0,0,7.2,0V324.41A3.6,3.6,0,0,0,386.09,320.81ZM215.35,376.43h-2v-2.49h2Z" transform="translate(0 -64)" style="opacity:0.2;fill:url(#linear-gradient-2)"/><path d="M170.09,425.46H39.3a3.56,3.56,0,0,1,0-7.11H170.09a3.56,3.56,0,1,1,0,7.11Z" transform="translate(0 -64)" style="opacity:0.2;fill:url(#linear-gradient-3)"/><path d="M50,444a3.54,3.54,0,1,1-3.54-3.54A3.53,3.53,0,0,1,50,444Z" transform="translate(0 -64)" style="fill:#42251c"/><path d="M164.45,399.79c15.69-21,65.17-17,70.87-30.37s21.51-40,21.51-40h19s-18.47,41.25-31.89,53.65-56.18,19-73.65,23.54C170.27,406.62,162.63,402.24,164.45,399.79Z" transform="translate(0 -64)" style="fill:#171e2c"/><path d="M227.22,333.48s-2,9,17.34,21.13,26.19,22,27.33,38.73,4.56,56.94,9.49,57.7c0,0,8,.76,9.11-3,0,0-.38-45.55-3.42-61.5s-11.26-31.76-28.62-44.34l-4.79-8.67Z" transform="translate(0 -64)" style="fill:#28314f"/><path d="M265.94,257.25s-6.22-7.26.55-11.86,10.11-8.35,5.63-12.25-11-4.89-12.52-12.5-7.36-13.78-16.44-9.78-6.36-6.57-15.38-2.13-.58,9.85-7.17,16-10.8,4.42-9.18,12.23-9.06,6-6.92,14.42,6.25,13-.81,20.78,5.58,20.24,24.12,10S284.45,275.91,265.94,257.25Z" transform="translate(0 -64)" style="fill:#42251c"/><path d="M220,265.77c2.4-8.11,31.55-11,39.61-6.45,6.2,3.52,18.73,21.51,18.73,21.51l5.06-20.5h7.09s-2,33.16-7.34,35.43-22.65-20.88-22.65-20.88,4.75,11-3.42,13.8c-5.23,1.78,18.73,40.75,18.73,40.75s-19.74,14.68-48.59,4.05l2.34-40.25s-.38-5.44-2.4-9.23c0,0-7.16,27.52-45.24,35.05l-1.78-5.82S207.44,308.08,220,265.77Z" transform="translate(0 -64)" style="fill:#fff"/><path d="M283.4,260.33l1.27-12.91s-3.07-12.06-1.63-12c1.12.07,3.15,3.12,3.15,3.12s-1.27-9.37,3.29-8.35,1,30.12,1,30.12Z" transform="translate(0 -64)" style="fill:url(#linear-gradient-4)"/><path d="M180.14,313.23s-13,1.7-16.64,4.55-2.66,7.22,0,7.22,1.71-2.66,4.56-3.42,2,1,2.58,1.9,2.54-.76,3.68-2.47,5.51-2,7.6-2Z" transform="translate(0 -64)" style="fill:url(#linear-gradient-5)"/><path d="M280.15,450v8.23h5.78V456s3.42,2.28,13.86,2.28c0,0,4.56-.46,4.56-4.12,0,0-11.58-2.53-13.86-7.09Z" transform="translate(0 -64)" style="fill:#42251c"/><path d="M165.64,398.24l-7.22,3.95,2.78,5.07,2-1.09s-.35,4.08,4.66,13.25c0,0,2.58,3.78,5.8,2,0,0-3.35-11.37-.44-15.55Z" transform="translate(0 -64)" style="fill:#42251c"/><path d="M91.47,444a3.54,3.54,0,1,1-3.54-3.54A3.53,3.53,0,0,1,91.47,444Z" transform="translate(0 -64)" style="fill:#42251c"/><path d="M244.17,247.35s5.32-2.27,4.94-8.16-.68-8.19,0-10.82c.45-1.7-11-6.26-13.21.1-3,8.77.28,6.17-3.52,6.17s-3.79,5.69,0,5.88,3.8,13.86,2.85,16c0,0-1.75,10.82,6.07,9.11S242.27,258.56,244.17,247.35Z" transform="translate(0 -64)" style="fill:url(#linear-gradient-6)"/><path d="M128.2,349.3a.8.8,0,0,1-.4-.11.76.76,0,0,1-.25-1.05L141.45,326a19,19,0,1,1,32.14,20.19L171.87,349a.76.76,0,1,1-1.28-.81l1.72-2.74a17.47,17.47,0,1,0-29.58-18.58L128.84,349A.77.77,0,0,1,128.2,349.3Z" transform="translate(0 -64)" style="fill:#242d40"/><path d="M179.58,350.25a7.05,7.05,0,0,0-4-1.67l0,0H114.84L45.49,444h60.28l0,0a7,7,0,0,0,5.39-2.44l69.16-81.3A7.09,7.09,0,0,0,179.58,350.25Z" transform="translate(0 -64)" style="fill:#29314e"/><path d="M50.64,441.55a7.09,7.09,0,0,1-10,.76h0a7.08,7.08,0,0,1-.76-10L109,351a7.07,7.07,0,0,1,10-.77h0a7.09,7.09,0,0,1,.76,10Z" transform="translate(0 -64)" style="fill:#303b61"/><path d="M302.33,461.24H171.54a3.55,3.55,0,1,1,0-7.1H302.33a3.55,3.55,0,0,1,0,7.1Z" transform="translate(0 -64)" style="opacity:0.2;fill:url(#linear-gradient-7)"/><path d="M0,454.67H104.36a3.55,3.55,0,1,0,0-7.1H0Z" transform="translate(0 -64)" style="opacity:0.2;fill:url(#linear-gradient-8)"/><path d="M366.1,134c47.31-7.64,54.33-9.24,54.33-9.24s9.38-2.92,4.5-9.88q-1-1.36-1.86-2.43c-2.84,7.72-27.06,10.5-57.77,15.46-34.17,5.52-30.64,1.22-30.64,1.22s-23.89,1.78-24.77-3.66a5.84,5.84,0,0,1,1.27-4.88l-15.75,2.55S318.78,141.6,366.1,134Z" transform="translate(0 -64)" style="fill:#cfcfd7"/><path d="M295.41,123.09l-4.28-11.56a2.88,2.88,0,0,1,.66-3.4c.44-.39.44-.39,2-1.67.6-.5,1.28-1.14,3.13.34l14.25,13.74Z" transform="translate(0 -64)" style="fill:#8fb1cd"/><polygon points="295.41 59.09 287.95 64.5 298.3 62.83 311.16 56.54 295.41 59.09" style="fill:#e0e4eb"/><path d="M364.33,121.87s-26.46,6.69-29.67,7.21c0,0-3.53,4.3,30.64-1.22l1.57-.25C362.19,126.05,364.33,121.87,364.33,121.87Z" transform="translate(0 -64)" style="fill:#c0c0c4"/><path d="M325.35,143c.53,3.29-1.43,6.35-4.39,6.82s-5.77-1.8-6.31-5.09,1.44-6.34,4.39-6.82S324.82,139.75,325.35,143Z" transform="translate(0 -64)" style="fill:#8fb1cd"/><path d="M324.32,143.2a4,4,0,1,1-4.69-3.78A4.27,4.27,0,0,1,324.32,143.2Z" transform="translate(0 -64)" style="fill:#535a55"/><path d="M319,137.94a5.11,5.11,0,0,1,3.81.95h0a6.17,6.17,0,0,0-2.22-1.2c-9.12-3.09-15.67-1.47-18.22,1.46,2.17,4.5,7.82,5.37,12.21,5.3A5.71,5.71,0,0,1,319,137.94Z" transform="translate(0 -64)" style="fill:#f5f5f3"/><path d="M302.41,139.15c-2.07,2.39-1.5,5.64,2.52,7.92,8.95,5.07,16,2.78,16,2.78-2.95.48-5.77-1.8-6.31-5.09l0-.31C310.23,144.52,304.58,143.65,302.41,139.15Z" transform="translate(0 -64)" style="fill:#c5cbcc"/><path d="M432.06,104.62a2.9,2.9,0,1,1-3.36-2.71A3.07,3.07,0,0,1,432.06,104.62Z" transform="translate(0 -64)" style="fill:#8fb1cd"/><path d="M431.51,104.71a2.16,2.16,0,1,1-2.5-2A2.27,2.27,0,0,1,431.51,104.71Z" transform="translate(0 -64)" style="fill:#535a55"/><path d="M428.7,101.91a2.72,2.72,0,0,1,2,.5h0a3.4,3.4,0,0,0-1.19-.64c-4.85-1.64-8.33-.78-9.69.78,1.15,2.4,4.16,2.86,6.49,2.82A3,3,0,0,1,428.7,101.91Z" transform="translate(0 -64)" style="fill:#f5f5f3"/><path d="M419.85,102.55c-1.11,1.27-.8,3,1.34,4.22,4.76,2.7,8.53,1.48,8.53,1.48a3.07,3.07,0,0,1-3.36-2.71c0-.06,0-.11,0-.17C424,105.41,421,105,419.85,102.55Z" transform="translate(0 -64)" style="fill:#c5cbcc"/><path d="M351.54,134.58c.56,3.5-1.53,6.75-4.67,7.26s-6.15-1.92-6.71-5.42,1.52-6.75,4.67-7.26S351,131.08,351.54,134.58Z" transform="translate(0 -64)" style="fill:#8fb1cd"/><path d="M350.45,134.75a4.31,4.31,0,1,1-5-4A4.56,4.56,0,0,1,350.45,134.75Z" transform="translate(0 -64)" style="fill:#535a55"/><path d="M344.83,129.16a5.4,5.4,0,0,1,4.05,1h0a6.81,6.81,0,0,0-2.37-1.27c-9.7-3.29-16.66-1.56-19.38,1.56,2.31,4.79,8.32,5.71,13,5.63C339.74,132.71,341.78,129.65,344.83,129.16Z" transform="translate(0 -64)" style="fill:#f5f5f3"/><path d="M327.13,130.45c-2.21,2.54-1.59,6,2.68,8.42,9.52,5.4,17.06,3,17.06,3-3.14.5-6.15-1.92-6.71-5.42,0-.11,0-.23,0-.34C335.45,136.16,329.44,135.24,327.13,130.45Z" transform="translate(0 -64)" style="fill:#c5cbcc"/><path d="M410,111.47a2,2,0,0,1,1.65-2.28l6.23-1c-2.39-1.12-5.11-1.49-8.86-1.81-7.61-.65-11.64.24-17.58,1.2l-80.28,13a5.84,5.84,0,0,0-1.27,4.88c.88,5.44,24.77,3.66,24.77,3.66,3.21-.52,29.67-7.21,29.67-7.21s-2.14,4.18,2.54,5.74c30-4.81,53.41-7.62,56.2-15.21-.26-.32-.53-.61-.79-.89l-10,1.61A2,2,0,0,1,410,111.47Z" transform="translate(0 -64)" style="fill:#f5f5f3"/><polygon points="342.31 60.02 364.11 56.49 364.33 57.87 277.03 86.28 275.25 87.77 261.9 89.93 261.62 88.16 342.31 60.02" style="fill:#e2e8ea"/><path d="M404.31,106.16c1.43,0,3,.07,4.71.22s3.37.32,4.78.57h0L447,95l-3.93.63-38.8,10.52Z" transform="translate(0 -64)" style="fill:#e2e8ea"/><polygon points="336.81 60.9 342.31 60.02 261.62 88.16 336.81 60.9" style="fill:#fff"/><path d="M404.3,106.16h0l38.8-10.52-50.73,11.78A65.37,65.37,0,0,1,404.3,106.16Z" transform="translate(0 -64)" style="fill:#fff"/><path d="M390.15,115.23A1.92,1.92,0,0,1,388,113.6a1.9,1.9,0,0,1,.36-1.44,2,2,0,0,1,1.28-.76,1.94,1.94,0,0,1,1.82,3.08A1.91,1.91,0,0,1,390.15,115.23Z" transform="translate(0 -64)" style="fill:#1f5278"/><path d="M388,113.6a1.93,1.93,0,0,1,1.64-2.2h0a1.94,1.94,0,0,1,2.19,1.64h0a2,2,0,0,1-1.64,2.2h0A1.94,1.94,0,0,1,388,113.6Z" transform="translate(0 -64)" style="fill:#1f5278"/><path d="M380.27,114.71a1.94,1.94,0,0,1,1.64-2.2h0a1.94,1.94,0,0,1,2.2,1.64h0a2,2,0,0,1-1.64,2.2h0A1.94,1.94,0,0,1,380.27,114.71Zm-7.68,1.11a1.93,1.93,0,0,1,1.64-2.2h0a1.93,1.93,0,0,1,2.19,1.64h0a1.94,1.94,0,0,1-1.64,2.2h0A1.93,1.93,0,0,1,372.59,115.82Zm-7.69,1.11a2,2,0,0,1,1.64-2.2h0a2,2,0,0,1,2.2,1.64h0a1.94,1.94,0,0,1-1.64,2.2h0A2,2,0,0,1,364.9,116.93ZM357.22,118a1.93,1.93,0,0,1,1.64-2.2h0a1.93,1.93,0,0,1,2.19,1.64h0a1.94,1.94,0,0,1-1.64,2.2h0A1.93,1.93,0,0,1,357.22,118Zm-7.68,1.11a1.93,1.93,0,0,1,1.63-2.2h0a1.94,1.94,0,0,1,2.2,1.64h0a1.94,1.94,0,0,1-1.64,2.2h0A1.93,1.93,0,0,1,349.54,119.15Zm-7.69,1.11a1.93,1.93,0,0,1,1.64-2.2h0a2,2,0,0,1,2.2,1.64h0a2,2,0,0,1-1.65,2.2h0A1.93,1.93,0,0,1,341.85,120.26Zm-7.69,1.11a1.94,1.94,0,0,1,1.64-2.2h0a2,2,0,0,1,2.2,1.64h0a2,2,0,0,1-1.64,2.2h0A1.94,1.94,0,0,1,334.16,121.37Zm-7.69,1.11a2,2,0,0,1,1.64-2.2h0a1.94,1.94,0,0,1,2.2,1.65h0a1.94,1.94,0,0,1-1.64,2.19h0A2,2,0,0,1,326.47,122.48Z" transform="translate(0 -64)" style="fill:#1f5278"/><path d="M321,125.22a2,2,0,0,1-1.44-.36,2,2,0,0,1-.76-1.27,1.95,1.95,0,0,1,1.65-2.2,1.95,1.95,0,0,1,2.19,1.64,2,2,0,0,1-.36,1.44A2,2,0,0,1,321,125.22Z" transform="translate(0 -64)" style="fill:#1f5278"/><path d="M318.8,123.59a1.94,1.94,0,0,1,1.65-2.2h0a1.93,1.93,0,0,1,2.19,1.64h0a2,2,0,0,1-1.64,2.2h0A2,2,0,0,1,318.8,123.59Z" transform="translate(0 -64)" style="fill:#1f5278"/><path d="M380.29,114.71a1.93,1.93,0,0,1,1.64-2.2h0a1.92,1.92,0,0,1,2.19,1.64h0a2,2,0,0,1-1.64,2.2h0A1.94,1.94,0,0,1,380.29,114.71Zm-7.69,1.11a1.93,1.93,0,0,1,1.64-2.2h0a1.92,1.92,0,0,1,2.19,1.64h0a1.94,1.94,0,0,1-1.64,2.2h0A1.94,1.94,0,0,1,372.6,115.82Zm-7.69,1.11a1.94,1.94,0,0,1,1.64-2.2h0a1.94,1.94,0,0,1,2.2,1.64h0a2,2,0,0,1-1.65,2.2h0A1.94,1.94,0,0,1,364.91,116.93ZM357.23,118a1.93,1.93,0,0,1,1.64-2.2h0a1.94,1.94,0,0,1,2.19,1.64h0a2,2,0,0,1-1.64,2.2h0A1.94,1.94,0,0,1,357.23,118Zm-7.69,1.11a1.94,1.94,0,0,1,1.64-2.2h0a2,2,0,0,1,2.2,1.64h0a2,2,0,0,1-1.64,2.2h0A2,2,0,0,1,349.54,119.15Zm-7.68,1.11a1.93,1.93,0,0,1,1.64-2.2h0a1.93,1.93,0,0,1,2.19,1.64h0a2,2,0,0,1-1.64,2.2h0A1.93,1.93,0,0,1,341.86,120.26Zm-7.69,1.11a1.94,1.94,0,0,1,1.64-2.2h0a1.94,1.94,0,0,1,2.2,1.64h0a2,2,0,0,1-1.64,2.2h0A2,2,0,0,1,334.17,121.37Zm-7.68,1.11a1.94,1.94,0,0,1,1.64-2.2h0a1.93,1.93,0,0,1,2.19,1.64h0a1.94,1.94,0,0,1-1.64,2.2h0A1.93,1.93,0,0,1,326.49,122.48Z" transform="translate(0 -64)" style="fill:#1f5278"/><path d="M400.58,117.56a2,2,0,0,1-1.65,2.28h0a2,2,0,0,1-2.28-1.64l-.86-5.31a2,2,0,0,1,1.65-2.28h0a2,2,0,0,1,2.28,1.65Z" transform="translate(0 -64)" style="fill:#8fb1cd"/><path d="M417.88,108.19l-6.23,1a2,2,0,1,0,.64,3.93l10-1.61A14,14,0,0,0,417.88,108.19Z" transform="translate(0 -64)" style="fill:#1f5278"/><polygon points="286.13 46.17 274.33 51.83 286.88 49 286.13 46.17" style="fill:#f5f5f3"/><polygon points="257.21 89.72 233.24 97.55 257.74 92.6 257.21 89.72" style="fill:#f5f5f3"/></g></svg>