<svg xmlns="http://www.w3.org/2000/svg" xmlns:xlink="http://www.w3.org/1999/xlink" viewBox="0 0 481.88 325.89"><defs><linearGradient id="Degradado_sin_nombre_42" x1="20.14" y1="317.39" x2="193.14" y2="317.39" gradientUnits="userSpaceOnUse"><stop offset="0" stop-color="#4a50c2" stop-opacity="0.02"/><stop offset="1" stop-color="#444bcc" stop-opacity="0.64"/></linearGradient><linearGradient id="Degradado_sin_nombre_42-2" x1="141.6" y1="316.96" x2="314.6" y2="316.96" xlink:href="#Degradado_sin_nombre_42"/><linearGradient id="Degradado_sin_nombre_9" x1="105.32" y1="255.39" x2="112.01" y2="248.19" gradientUnits="userSpaceOnUse"><stop offset="0" stop-color="#df99aa" stop-opacity="0"/><stop offset="1" stop-color="#e594b2"/></linearGradient><linearGradient id="Degradado_sin_nombre_9-2" x1="231.68" y1="255.6" x2="244.97" y2="245.35" xlink:href="#Degradado_sin_nombre_9"/></defs><title>tourist</title><g id="BACKGROUND"><ellipse cx="106.64" cy="317.39" rx="86.5" ry="8.5" style="opacity:0.5;fill:url(#Degradado_sin_nombre_42)"/><ellipse cx="228.1" cy="316.96" rx="86.5" ry="8.5" style="opacity:0.5;fill:url(#Degradado_sin_nombre_42-2)"/><g style="opacity:0.6"><path d="M459.82,318.41C446.23,266.15,400.74,250,400.74,250a167.9,167.9,0,0,1,12,30.27A134.77,134.77,0,0,0,386.76,250C368.53,218.79,346,204.2,346,204.2c2.4,5.11,4.58,10.26,6.57,15.4C342.77,206.44,335,199.65,335,199.65c2.33,7.25,4.35,15,6.09,22.92A137.13,137.13,0,0,0,330,199.65a137.91,137.91,0,0,0-11.17,22.92c1.74-8,3.76-15.67,6.09-22.92,0,0-7.72,6.79-17.48,19.95,2-5.14,4.17-10.29,6.57-15.4,0,0-22.57,14.58-40.81,45.75a134.83,134.83,0,0,0-26,30.29,167.9,167.9,0,0,1,12-30.27s-45.48,16.18-59.07,68.44c-12.93-1.9-21.84-.07-21.84-.07a83,83,0,0,1,11.9,38.05h279.6a83,83,0,0,1,11.9-38.05S472.76,316.51,459.82,318.41Z" transform="translate(-12.23 -80.02)" style="fill:#4ca3a8;opacity:0.5"/><polygon points="229.32 122.83 225.33 122.83 225.33 108.82 213.48 89.1 213.46 89.1 213.46 66.8 213.63 66.8 205.15 41.47 205.15 36.32 206.84 36.32 206.84 34.52 205.15 34.52 205.15 33.11 206.84 33.11 205.15 29.97 205.15 21.52 203.36 21.52 203.36 29.77 201.54 33.11 203.36 33.11 203.36 34.52 201.54 34.52 201.54 36.32 203.36 36.32 203.36 41.43 194.75 66.8 194.55 66.8 194.55 89.12 182.71 108.82 182.71 122.83 179.01 122.83 179.01 170.98 182.71 170.98 182.71 191.12 182.71 191.12 182.71 195.54 182.71 195.54 182.71 218.14 182.71 218.14 182.71 222.56 182.71 222.56 182.71 244.92 182.71 244.92 182.71 249.34 182.71 249.34 182.71 271.94 182.71 271.94 182.71 276.36 182.71 276.36 225.33 276.36 225.33 271.94 225.33 249.34 225.33 244.92 225.33 222.56 225.33 218.14 225.33 195.54 225.33 191.12 225.33 170.98 229.32 170.98 229.32 122.83" style="fill:#51aeb6;opacity:0.4"/><path d="M344.55,209.38h-1.78c1.51-.62,0-1.51,0-1.51h-6.32c1.78,0,1.33-2,1.33-2s-6.67,1-7.74,1.07-2,2.85-2,2.85l-3.58-.31c.07-.57.1-1,.11-1.25v-.22s-30-2.23-35.06-3.74a41.42,41.42,0,0,0-4.58-1c-.42-5.18-.87-11.7-.77-14.79s-1.56-9-8.92-9-9,5.85-8.92,9-.34,9.62-.76,14.8a40.51,40.51,0,0,0-4.53,1C256,205.82,226,208.05,226,208.05a2,2,0,0,1,0,.22c0,.24,0,.68.1,1.25l-3.58.31s-.89-2.76-1.95-2.85-7.75-1.07-7.75-1.07-.44,2,1.34,2h-6.32s-1.51.89,0,1.51h-1.78s-1-.17-1,1c0,.45.42.69.94.8h1.79s-1.24,1.64,2.55,1.64c0,0-1.15,1.36,2,1.36s8.51.59,9.22-.15.78-1,.78-1l4.6.75c1.1,3.61,3.42,7.87,8.38,9.41a13.59,13.59,0,0,0,4.16.61H250s5.51,3.39,9.25,3.54l-.07,1.42c-1.19,4.92-5,21.38-4.15,27.52.19,1.46.65,2.34,1.46,2.34h1.11c-.17,3.56-.28,6.63-.28,8.67a7.11,7.11,0,0,0,1.14,3.85v4.38a6.72,6.72,0,0,0,1.73,2.06v38.53h-2.59v4.57h-2.57v29.4h-.66a3.16,3.16,0,0,0,0,6.31h42.26a3.16,3.16,0,0,0,0-6.31H295.6v-29.4H293v-4.57h-2.18V295.43h1.85V276.25a.82.82,0,0,0,.67-.3,3,3,0,0,0,.42-1.64,10.64,10.64,0,0,1,1.81,2.7s-1.66-15-3.42-31.44l-1.12-18.21c3.74,0,9.52-3.56,9.52-3.56h10.5a13.61,13.61,0,0,0,4.17-.61c5-1.54,7.28-5.8,8.38-9.41l4.6-.75s.06.3.77,1,6.08.15,9.23.15,2-1.36,2-1.36c3.79,0,2.55-1.64,2.55-1.64h1.79c.52-.11.93-.35.93-.8C345.49,209.21,344.55,209.38,344.55,209.38Z" transform="translate(-12.23 -80.02)" style="fill:#4ca3a8"/><path d="M82.08,327.61l-.43-8.87h0l-.44-8.88h0L80.76,301h0l-.44-8.87h0l-.44-8.88h0l-.28-5.71h3.08L87,261.14a58.8,58.8,0,0,0-8.23-1.65l-.28-6.19h0l-.37-7.48h0l-.38-7.48h0l-.37-7.47h0L77,223.39h0l-.37-7.47h0l-.24-4.81h2.39l3.62-13.74A50.5,50.5,0,0,0,75.58,196l-1.92-38.78h.43l2.72-10.33a29.16,29.16,0,0,0-4-.85l-1.4-18.68,2.23-8.46a25.19,25.19,0,0,0-3-.65,180,180,0,0,0-2.53-25.69H50.76a180,180,0,0,0-2.53,25.69,25.19,25.19,0,0,0-3,.65l2.22,8.46L46.07,146a29.49,29.49,0,0,0-4,.85l2.72,10.33H45L43.1,196a49.09,49.09,0,0,0-6.87,1.37l3.61,13.74h2.4L42,215.92l-.37,7.47-.37,7.48-.37,7.47-.37,7.48-.37,7.48-.28,6.23a57.67,57.67,0,0,0-8,1.61l4.31,16.38H39l-.28,5.71-.44,8.88L37.88,301l-.44,8.88L37,318.74l-.44,8.87-1.29,28.78h48.1l-1.29-28.78Z" transform="translate(-12.23 -80.02)" style="fill:#4ca3a8"/><polygon points="38.53 9.06 38.53 11.73 47.22 11.73 55.91 11.73 55.91 9.06 47.22 9.06 38.53 9.06" style="fill:#4ca3a8"/><path d="M59.45,88.21H69S70,80,59.45,80s-9.53,8.19-9.53,8.19Z" transform="translate(-12.23 -80.02)" style="fill:#4ca3a8"/><g style="opacity:0.5"><rect x="114.77" y="140.12" width="11.37" height="0.03" style="fill:#4ca3a8"/><path d="M217.77,265.58a3.54,3.54,0,0,0-1.79,6.6h0c-9.86,8.16-20.92,8.56-29,7.19v-3.53a3.9,3.9,0,0,0-.33-7.78H78.82a3.9,3.9,0,0,0-.33,7.78v3.53c-8.11,1.37-19.17,1-29-7.19h0a3.54,3.54,0,1,0-3.53,0,13.71,13.71,0,0,0,5.12,7s-2.76,3-.6,4.73c1.92,1.56,12.44,7.43,28,8.78H187c15.59-1.35,26.12-7.22,28-8.78,2.17-1.78-.59-4.73-.59-4.73a13.72,13.72,0,0,0,5.11-7,3.54,3.54,0,0,0-1.73-6.64Z" transform="translate(-12.23 -80.02)" style="fill:#4ca3a8"/><path d="M117.31,350.54H78.49v0h-26a5.82,5.82,0,0,0-5.82,5.81H218.8a5.81,5.81,0,0,0-5.81-5.81H187v0H117.31Z" transform="translate(-12.23 -80.02)" style="fill:#4ca3a8"/><path d="M195.18,232.68c1.64-1.35-.45-3.59-.45-3.59a10.45,10.45,0,0,0,3.88-5.35,2.71,2.71,0,1,0-2.68,0h0c-7.49,6.2-15.88,6.51-22,5.47v-3.12a3,3,0,0,0-.26-5.91H138.37v0H127v0H91.8a3,3,0,0,0-.26,5.91v3.12c-6.15,1-14.55.73-22-5.47h0a2.68,2.68,0,1,0-2.68,0,10.45,10.45,0,0,0,3.88,5.35s-2.09,2.24-.44,3.59c1.45,1.19,9.44,5.64,21.28,6.67h82.35C185.73,238.32,193.72,233.87,195.18,232.68Z" transform="translate(-12.23 -80.02)" style="fill:#4ca3a8"/><path d="M173.92,208.93h.14a37.25,37.25,0,0,1-15.39-28.21h1.74a2,2,0,0,0,0-4H105a2,2,0,0,0,0,4h1.74a37.21,37.21,0,0,1-15.38,28.21h82.54Z" transform="translate(-12.23 -80.02)" style="fill:#4ca3a8"/><path d="M127,213.06h0c0-2,2.55-3.55,5.68-3.55s5.66,1.59,5.68,3.55h0v7.08h15.49V208.93H111.57v11.21H127Z" transform="translate(-12.23 -80.02)" style="fill:#4ca3a8"/><path d="M173.89,239.35H91.54v28.71h82.35Zm-52.84,20.37h-11.8v-15h11.8Zm17.53,0h-11.8v-15h11.8Zm17.54,0h-11.8v-15h11.8Z" transform="translate(-12.23 -80.02)" style="fill:#4ca3a8"/><path d="M78.49,350.54h38.82V306.09h0c0-5.31,6.9-9.61,15.36-9.61s15.33,4.3,15.36,9.61h0v44.45H187V292.78H78.49Zm89.45-4-11.8,0v-5l11.8,0Zm-11.82-45h11.8v5h-11.8Zm0,10h11.8v5h-11.8Zm0,10h11.8v5h-11.8Zm0,10h11.8v5h-11.8ZM97.45,301.51h11.8v5H97.45Zm0,10h11.8v5H97.45Zm0,10h11.8v5H97.45Zm0,10h11.8v5H97.45Zm0,10,11.79,0v5l-11.8,0Z" transform="translate(-12.23 -80.02)" style="fill:#4ca3a8"/></g><polygon points="481.88 276.36 451.6 276.36 21.71 276.36 0 276.36 0 280.67 21.71 280.67 21.71 284.97 86.1 284.97 86.1 289.27 220.1 289.27 220.1 284.97 263.26 284.97 263.26 289.27 397.26 289.27 397.26 284.97 451.6 284.97 451.6 280.67 481.88 280.67 481.88 276.36" style="fill:#429694"/></g></g><g id="OBJECTS"><polygon points="136.87 309.83 138.69 314.64 135.95 315.7 133.02 309.76 135.93 309.09 136.87 309.83" style="fill:#fff"/><path d="M147.72,394.77l14.14-4.42a1.34,1.34,0,0,1,1.43.69c.44.9-14.22,6.35-14.22,6.35Z" transform="translate(-12.23 -80.02)" style="fill:#524f63"/><polygon points="136.87 309.83 138.69 314.64 135.95 315.7 133.02 309.76 135.93 309.09 136.87 309.83" style="fill:#eebcc5"/><path d="M147.72,394.77l14.14-4.42a1.34,1.34,0,0,1,1.43.69c.44.9-14.22,6.35-14.22,6.35Z" transform="translate(-12.23 -80.02)" style="fill:#524f63"/><polygon points="149.62 165.47 144.77 166.64 141.75 155.03 146.6 153.87 149.62 165.47" style="fill:#524f63"/><path d="M165.24,232.41l.4,1.6-3.84,1,.3,1.2-5.2,1.31s0,0,0,.09h-.06l.47,1.84c.22.92.45,1.83.45,1.83h.07a.25.25,0,0,0,0,.07l5.21-1.31.3,1.2,3.84-1,.41,1.6,4.72-1.19-.73-2.88-.92-3.67-.73-2.88Z" transform="translate(-12.23 -80.02)" style="fill:#524f63"/><path d="M152.76,239.26a2,2,0,0,0-.69,2c.09.24.26.44.37.67a5.17,5.17,0,0,1,.34,1.24,3.41,3.41,0,0,0,.81,1.62,1.87,1.87,0,0,0,1.66.59,2.47,2.47,0,0,0,1.54-1.43,8.72,8.72,0,0,0,.79-3.56,3.83,3.83,0,0,0-.31-1.93C156.29,236.53,153.77,238.22,152.76,239.26Z" transform="translate(-12.23 -80.02)" style="fill:#e5a3b2"/><polygon points="65.05 296.2 62.16 300.46 59.72 298.82 62.9 293.01 65.11 295.01 65.05 296.2" style="fill:#fff"/><polygon points="65.05 296.2 62.16 300.46 59.72 298.82 62.9 293.01 65.11 295.01 65.05 296.2" style="fill:#eebcc5"/><path d="M72.68,377.4l1.83,3,.67,12.7a1.35,1.35,0,0,1-1,1.28c-1,.25-3.46-15.19-3.46-15.19Z" transform="translate(-12.23 -80.02)" style="fill:#524f63"/><polygon points="111.75 229.06 97.76 267.68 65.38 297.22 61.23 294.64 86.95 263.78 92.83 228.35 111.75 229.06" style="fill:#37354c"/><polygon points="112.11 228.88 137.89 310.14 133.4 312.06 92.1 228.11 112.11 228.88" style="fill:#524f63"/><polygon points="128.2 181.03 115.24 180.84 118.56 188.99 133.72 187.28 145.31 160.57 141.03 162.46 128.2 181.03" style="fill:#e5a3b2"/><path d="M127.47,260.86h0l-14.56-.24a5.2,5.2,0,1,0,.2,10.37l17.68-2Z" transform="translate(-12.23 -80.02)" style="fill:#7c81e8"/><path d="M111.69,265.46a63.86,63.86,0,0,0-6.84-1.42c2.64-7.74,0-16.17-.11-24.35A3.75,3.75,0,0,1,105,238a2.94,2.94,0,0,1,2.07-1.37c3.58-.78,7.11,2.19,8.28,5.66,1.35,4-1.75,5.8-2.49,9.8C112.69,253,111.49,265.4,111.69,265.46Z" transform="translate(-12.23 -80.02)" style="fill:#eebcc5"/><path d="M114,249,109.84,247l-4.54-1.35.18,3c0,.39.08.79.13,1.19.65,2.94,5.09,6.57,6.67,7.78.26-2.7.51-5.17.59-5.58A11.64,11.64,0,0,1,114,249Z" transform="translate(-12.23 -80.02)" style="fill:url(#Degradado_sin_nombre_9)"/><path d="M126.81,239.09c-.62-.53-1.41-.8-2.06-1.29-1.5-1.13-2-3.12-2.59-4.89-2.39-6.62-10.58-10.4-15.57-6.95-1.2.83-2.54.25-3.66,1.18a6.93,6.93,0,0,0-1.7,1.8,6.53,6.53,0,0,0-.71,3c-.3,7,3.36,13.83,8.63,18.47,2,1.8,4.54,3.39,7.27,3.32a7.73,7.73,0,0,0,5.7-3,9.43,9.43,0,0,0,1.41-2.54c-1.61-1.17-4-3.36-4-3.36s2.86.18,4.72.25c0-.17.05-.34.06-.5a3,3,0,0,1,.55-2c.68-.69,2-.53,2.52-1.34A1.73,1.73,0,0,0,126.81,239.09Z" transform="translate(-12.23 -80.02)" style="fill:#eebcc5"/><path d="M107.25,237.48a2.52,2.52,0,0,0-2,2.36c0,1.94,2.06,3.13,3.84,3.88-.49,1.92-2.83,4-3.12,6-1.48-1.76-1-3.66-2.51-5.42a35.74,35.74,0,0,1-4.75-6.55c-1.24-2.41-1.57-2.23-1-4.88.83-4,4.48-7.13,8.49-8.14s8.28-.26,12.16,1.16a2.36,2.36,0,0,1,1.35.94,2.62,2.62,0,0,1,.11,1.47c-.3,2.9-.18,3.18-1.93,5.52a9,9,0,0,1-2.36,2c-1.29.85-3.16,2.29-4.71,2.57S108.82,237.19,107.25,237.48Z" transform="translate(-12.23 -80.02)" style="fill:#524f63"/><path d="M121.79,237.58c.13.63.08,1.16-.11,1.21s-.46-.43-.6-1.06-.08-1.16.11-1.2S121.65,237,121.79,237.58Z" transform="translate(-12.23 -80.02)" style="fill:#524f63"/><path d="M104.3,308.34l20.42,1s2.66-21.53-1.51-34.73c-3.34-9.35-18.87-15.53-18.87-15.53Z" transform="translate(-12.23 -80.02)" style="fill:#9092ec"/><path d="M103.77,274.09h-2v-4.86a8.55,8.55,0,0,1,17.1,0h-2a6.55,6.55,0,0,0-13.1,0Z" transform="translate(-12.23 -80.02)" style="fill:#524f63"/><polygon points="128.2 187.03 115.24 186.83 118.56 194.98 133.72 193.28 145.31 166.56 141.03 168.46 128.2 187.03" style="fill:#eebcc5"/><rect x="68.87" y="174.79" width="24.24" height="48.02" rx="7.99" ry="7.99" style="fill:#f7db94"/><path d="M81.1,277.11v17.73a8,8,0,0,0,8,8h8.25a8,8,0,0,0,8-8V277.11Z" transform="translate(-12.23 -80.02)" style="fill:#524f63"/><path d="M86,279.76v7.79a6.86,6.86,0,0,0,6.86,6.86h0a6.86,6.86,0,0,0,6.86-6.86v-7.79Z" transform="translate(-12.23 -80.02)" style="fill:#f7db94"/><rect x="75.28" y="201.22" width="10.81" height="0.79" style="fill:#524f63"/><path d="M88.35,263.08v5.13a4.51,4.51,0,0,0,4.51,4.51h0a4.51,4.51,0,0,0,4.51-4.51v-5.13Z" transform="translate(-12.23 -80.02)" style="fill:#524f63"/><path d="M101.85,293.06l-.55-1.92a24.24,24.24,0,0,0,7.21-3.8c4.6-3.56,6.77-8.14,6.45-13.59l2-.12C117.8,288.31,102,293,101.85,293.06Z" transform="translate(-12.23 -80.02)" style="fill:#524f63"/><rect x="77.11" y="184.04" width="7.11" height="0.52" style="fill:#f7db94"/><path d="M104.67,278.59a1,1,0,0,1-1-1V262.8a7,7,0,0,0-7-7H88.42a7,7,0,0,0-7,7,1,1,0,0,1-2,0,9,9,0,0,1,9-9h8.26a9,9,0,0,1,9,9v14.79A1,1,0,0,1,104.67,278.59Z" transform="translate(-12.23 -80.02)" style="fill:#524f63"/><path d="M65.74,182.62h3.66a0,0,0,0,1,0,0v5.72a0,0,0,0,1,0,0h0a3.66,3.66,0,0,1-3.66-3.66v-2.07A0,0,0,0,1,65.74,182.62Z" style="fill:#524f63"/><path d="M127.47,266.85h0l-14.56-.23a5.2,5.2,0,1,0,.2,10.37l17.68-2Z" transform="translate(-12.23 -80.02)" style="fill:#9ea2f2"/><path d="M152.47,249.81a27.81,27.81,0,0,0,2-6.26c0-.31-1.53-2.15-1.48-2.45.28-1.85,1.23-2,1.55-2.1.58-.14.58-3,.54-4.44a.82.82,0,0,1,.82-.85h0a.82.82,0,0,1,.84.69l.66,3.79,1.9-.24s2.21.13,2.55,1.18c.6,1.86-1.55,6.89-1.55,6.89l-2.7,1.51Z" transform="translate(-12.23 -80.02)" style="fill:#eebcc5"/><path d="M243.19,259.89l-.92,1.54a32.25,32.25,0,0,1-3.82-1.9c-.06-.25-.43-2-.43-2l1.29-.06Z" transform="translate(-12.23 -80.02)" style="fill:#f8fdff"/><path d="M238.12,266.93c.57.7,1.19,1.57.89,2.43-.2.59-.79,1-1.1,1.52-.72,1.27.27,2.83.25,4.3a.64.64,0,0,1-.14.47c-.19.21-.54.12-.8,0-2.32-.92-4.48-2.24-6.86-3-2.07-.63-4.29-.8-6.21-1.77a3.77,3.77,0,0,1-1.65-1.43c-.81-1.42,0-3.24,1-4.5a12.34,12.34,0,0,1,5.32-3.71C233.4,259.69,235.62,263.91,238.12,266.93Z" transform="translate(-12.23 -80.02)" style="fill:#524f63"/><polygon points="203.17 319.39 218.13 319.85 207.31 316.17 231.13 235 213.5 230.66 203.17 319.39" style="fill:#eebcc5"/><path d="M230.84,273.14a67.94,67.94,0,0,0-6.92-1.43c2.67-7.82,0-16.35-.11-24.61a3.82,3.82,0,0,1,.27-1.75,3,3,0,0,1,2.1-1.39c3.61-.79,7.18,2.22,8.37,5.72,1.37,4.06-.09,6.56-.84,10.6C233.53,261.25,230.64,273.09,230.84,273.14Z" transform="translate(-12.23 -80.02)" style="fill:#eebcc5"/><path d="M246.27,258.34a2.29,2.29,0,0,0-.79-.82l-.9-.66c.24-2.25,2-5.29,1.4-8.3-.24-1.13-1.3-4.66-2.14-5.44C229.71,230.06,226.39,257,226.39,257l0,1.61a4.08,4.08,0,0,0,2.34,3.65c3.88,1.84,9.35,5.45,10.83,4.54a8.8,8.8,0,0,0,2.25-2.23,12.24,12.24,0,0,1-2.76-5.41,39.93,39.93,0,0,1,4.59,1.86,16.77,16.77,0,0,0,.48-1.64c.43.05.87.08,1.3.09a1.07,1.07,0,0,0,.59-.09A.8.8,0,0,0,246.27,258.34Z" transform="translate(-12.23 -80.02)" style="fill:#eebcc5"/><path d="M244.78,250.62c-.4-1.27-1.76-.74-2.89-.52.33-.55.63-1.11.92-1.69,3.05-6.15-3.69-6-7.3-2.95a10.38,10.38,0,0,0-3.61,7.59c0,.86.07,1.72,0,2.57a6.72,6.72,0,0,1-.79,2.55,1.71,1.71,0,0,0,1.51-.44,2.71,2.71,0,0,1-.12,1.44c2.36-1.27,4.8-4,6.62-6,.32.39,2.58.92,3,1.23C242.9,255.1,244.82,250.75,244.78,250.62Z" transform="translate(-12.23 -80.02)" style="fill:url(#Degradado_sin_nombre_9-2)"/><path d="M231.12,278.36,213.07,301l-4.57,21.07-3.34-1.37,2.65-22.34,14.79-22.79a4.47,4.47,0,0,1,2.62-3h0A4.49,4.49,0,0,1,231.12,278.36Z" transform="translate(-12.23 -80.02)" style="fill:#e5a3b2"/><polygon points="265.77 177.55 270.14 182.28 260.7 212.27 256.95 206.53 265.77 177.55" style="fill:#f8fdff"/><polygon points="270.14 182.28 276.34 189.69 273.8 184.01 265.77 177.55 270.14 182.28" style="fill:#e0e4ed"/><polygon points="260.7 212.27 262.63 210.65 270.14 182.28 260.7 212.27" style="fill:#e0e4ed"/><polygon points="262.63 210.65 264.79 212.61 270.14 182.28 262.63 210.65" style="fill:#c0c6ff"/><polygon points="270.14 182.28 272.95 190.04 275.74 191.08 276.34 189.69 270.14 182.28" style="fill:#cee0ea"/><polygon points="275.74 191.08 270.14 182.28 276.34 189.69 275.74 191.08" style="fill:#e0e4ed"/><path d="M230.1,250.67a2.55,2.55,0,0,0-2.66,1.66c-.63,1.85,1,3.64,2.5,4.91-1.06,1.7-4.13.85-5,2.65-.89-2.15-6.16-9.22-6.61-11.91s2.48-4.48,3.82-6.87c2-3.64,6.5-5.48,10.67-5.22s8.06,2.29,11.35,4.86a2.35,2.35,0,0,1,1,1.33,2.67,2.67,0,0,1-.35,1.44c-1.18,2.7-1.15,3-3.55,4.72a9.19,9.19,0,0,1-2.91,1.25c-1.5.42-3.58,3.38-5.16,3.17S231.7,250.88,230.1,250.67Z" transform="translate(-12.23 -80.02)" style="fill:#524f63"/><path d="M223.37,316.49l20.64,1s-3.69-11.62-3.94-17.23c-.23-5.19,2.81-16.19,1.41-20.63-3.38-9.45-18.08-13-18.08-13l0,33.17Z" transform="translate(-12.23 -80.02)" style="fill:#f8fdff"/><path d="M248.57,282h0l-11.27-6.79a4.7,4.7,0,1,0-4.55,8.18l14.71,6.47Z" transform="translate(-12.23 -80.02)" style="fill:#eebcc5"/><polygon points="243.91 311.2 240.86 274.53 227.23 229.03 216.2 249.59 231.75 275.93 242.5 317.38 251.7 307.26 243.91 311.2" style="fill:#e5a3b2"/><path d="M258.6,288.05l-10-6-1.1,7.87,10.14,4.46a4.66,4.66,0,0,0,4.65-.52l19-14-4.21-.47Z" transform="translate(-12.23 -80.02)" style="fill:#eebcc5"/><path d="M282.4,277.59a3.7,3.7,0,1,1-3.7-3.7A3.7,3.7,0,0,1,282.4,277.59Z" transform="translate(-12.23 -80.02)" style="fill:#eebcc5"/><path d="M240.31,300.7l-17.1-.23L214.56,338s11.56,7.05,18.12,7.87,17-6.35,17-6.35Z" transform="translate(-12.23 -80.02)" style="fill:#9092ec"/><path d="M245.14,250l-.49.71a4,4,0,0,0-3.62-.57,23.83,23.83,0,0,0-2.69.91s3-2.12,4-2.19A6.47,6.47,0,0,1,245.14,250Z" transform="translate(-12.23 -80.02)" style="fill:#524f63"/><path d="M243,254c-.2.61-.56,1-.8,1s-.27-.64-.07-1.25.56-1,.8-1S243.2,253.43,243,254Z" transform="translate(-12.23 -80.02)" style="fill:#524f63"/><path d="M200.73,343.67l-1.57-.51,7-19.09a.83.83,0,0,1,1-.53h0a.83.83,0,0,1,.53,1Z" transform="translate(-12.23 -80.02)" style="fill:#524f63"/><rect x="182.23" y="336.06" width="24.76" height="52.52" rx="10.19" ry="10.19" transform="translate(109.11 -122.4) rotate(17.98)" style="fill:#f7db94"/><rect x="167.54" y="361.44" width="52.52" height="1.24" transform="translate(-222.63 354.61) rotate(-72.02)" style="fill:#524f63"/><rect x="205.16" y="319.9" width="4.74" height="5.15" rx="1.18" ry="1.18" transform="translate(97.44 -128.33) rotate(17.98)" style="fill:#524f63"/><path d="M192.83,393.09a3.5,3.5,0,1,1-2.25-4.41A3.5,3.5,0,0,1,192.83,393.09Z" transform="translate(-12.23 -80.02)" style="fill:#524f63"/><circle cx="193.66" cy="241.15" r="3.42" style="fill:#e5a3b2"/><path d="M228.58,267.74c0,2.87,3.42,5.36,2.37,8-.57,1.44-2.2,2.1-3.69,2.5a28.6,28.6,0,0,1-6.45.92c-2.12.06-4.64-.38-5.53-2.31-1.05-2.27.95-4.81.91-7.31-.07-4-5.12-6.35-5.91-10.3a6.19,6.19,0,0,1,2.39-5.87c1.3-1,3-1.64,3.72-3.12.51-1.05.37-2.3.68-3.43.44-1.68,1.79-2.93,3.08-4.09,1.5-1.35,3.08-2.74,5-3.2,2.67-.62,5.39.63,7.75,2a4.2,4.2,0,0,1,1.77,1.56c.84,1.65-.71,3.59-2.42,4.3-3.52,1.45-10.31,3.33-5.35,7.58,1.43,1.23,3.36,1.62,3.95,3.54C231.93,262,228.54,264.59,228.58,267.74Z" transform="translate(-12.23 -80.02)" style="fill:#524f63"/><path d="M214.46,259.06a6.54,6.54,0,0,1-1.07,3.5c-1.37,1.59-4.37,1.52-5,3.51a3.29,3.29,0,0,0,.44,2.56,12.17,12.17,0,0,0,3,3.37c2.91,2.43,6.64,4.36,10.36,3.67a2.74,2.74,0,0,0,1.36-.56,2.94,2.94,0,0,0,.69-1.07,12.6,12.6,0,0,0-4.27-14.85c-1-.7-2.6-2.07-3.77-2.38C214.79,256.44,214.61,257.89,214.46,259.06Z" transform="translate(-12.23 -80.02)" style="fill:#524f63"/><rect x="210.99" y="219.39" width="17.11" height="2.42" style="fill:#524f63"/><path d="M215.24,397l-.38,2.44,15.5.45s-4.31-1.9-4.54-1.82a14.11,14.11,0,0,1-3.19.68C221.56,398.73,215.24,397,215.24,397Z" transform="translate(-12.23 -80.02)" style="fill:#524f63"/><polygon points="240.94 314.09 242.5 317.38 252.28 307.47 251.29 306.78 249.08 308.31 248.02 310.51 240.94 314.09" style="fill:#524f63"/><path d="M229.27,262.27a6.1,6.1,0,0,1,2.63,5.09,5,5,0,0,1-3.31,4.52,8.7,8.7,0,0,1-3,.26c-1.74,0-3.7-.19-4.8-1.53a5.1,5.1,0,0,1-.74-3.94,14.61,14.61,0,0,1,1.6-5c.66-1.23,1.83-2.87,3.36-2.18a23.66,23.66,0,0,1,2,1.45C227.75,261.41,228.55,261.77,229.27,262.27Z" transform="translate(-12.23 -80.02)" style="fill:#524f63"/><path d="M238,252.43a11,11,0,0,1-1.69,2.08,10.8,10.8,0,0,1-4.25,1.95,6.31,6.31,0,0,0,3.33-3.57,4.25,4.25,0,0,1-2.59,1.44q2.29-3.6,4.64-7.19a4.34,4.34,0,0,1,1.6-1.69,6.41,6.41,0,0,1,3.77-.24c-.32,1.17-1.56,2.46-2.26,3.49Z" transform="translate(-12.23 -80.02)" style="fill:#524f63"/><path d="M207.8,259.32c-.25-2.68,1.77-4.9,3.58-6a21.34,21.34,0,0,1,5.65-2l1.22-.32c2.2-.6,4.66-1.45,6.31-3.29l.12.11c-1.67,1.87-4.17,2.74-6.39,3.34l-1.22.32a20.53,20.53,0,0,0-5.6,2c-1.77,1.06-3.75,3.22-3.5,5.82Z" transform="translate(-12.23 -80.02)" style="fill:#524f63"/><path d="M209,252.43l-.16-.05a3.77,3.77,0,0,1,1.71-2.41,4,4,0,0,1,2-.16l.16,0a19.2,19.2,0,0,0,4.67-.16,4.79,4.79,0,0,0,2.66-1.09l.12.12a5,5,0,0,1-2.75,1.13,19.13,19.13,0,0,1-4.72.16h-.16a3.83,3.83,0,0,0-1.91.14A3.61,3.61,0,0,0,209,252.43Z" transform="translate(-12.23 -80.02)" style="fill:#524f63"/><path d="M237,255.92a.84.84,0,0,0-.18.54,1,1,0,0,0,.6.67,4.13,4.13,0,0,0,2.24.45,1,1,0,0,0,.31-.06.86.86,0,0,0,.26-.2,1.26,1.26,0,0,0,.21-1.24C240,254.69,237.77,254.85,237,255.92Z" transform="translate(-12.23 -80.02)" style="fill:none"/></g></svg>